<?xml version="1.0" encoding="UTF-8" standalone="no"?>
<!-- Created with Inkscape (http://www.inkscape.org/) -->

<svg
   version="1.1"
   id="svg2473"
   width="512"
   height="512"
   viewBox="0 0 512 512"
   sodipodi:docname="heat_station.svg"
   inkscape:version="1.1.2 (0a00cf5339, 2022-02-04)"
   xmlns:inkscape="http://www.inkscape.org/namespaces/inkscape"
   xmlns:sodipodi="http://sodipodi.sourceforge.net/DTD/sodipodi-0.dtd"
   xmlns="http://www.w3.org/2000/svg"
   xmlns:svg="http://www.w3.org/2000/svg">
  <defs
     id="defs2477" />
  <sodipodi:namedview
     id="namedview2475"
     pagecolor="#ffffff"
     bordercolor="#666666"
     borderopacity="1.0"
     inkscape:pageshadow="2"
     inkscape:pageopacity="0.0"
     inkscape:pagecheckerboard="true"
     showgrid="false"
     inkscape:zoom="0.53585436"
     inkscape:cx="-491.73809"
     inkscape:cy="242.60323"
     inkscape:window-width="1920"
     inkscape:window-height="1043"
     inkscape:window-x="0"
     inkscape:window-y="0"
     inkscape:window-maximized="1"
     inkscape:current-layer="g2479" />
  <g
     inkscape:groupmode="layer"
     inkscape:label="Image"
     id="g2479">
    <path
       style="fill:#000000"
       d="m 206.96468,467.11925 c -33.97699,-7.4142 -60.28899,-32.4358 -70.16527,-66.72422 -1.96576,-6.82468 -2.26831,-10.13197 -2.23167,-24.39503 0.0388,-15.0925 0.27686,-17.26352 2.79109,-25.45066 6.50229,-21.17351 21.16117,-41.05513 37.89611,-51.39789 L 179,296.83688 V 190.62854 C 179,75.100473 178.81169,79.225339 184.60801,67.786861 186.05157,64.938116 189.79197,60.048028 192.92,56.92 c 14.86785,-14.867853 36.92784,-18.125133 56.29314,-8.311994 6.40971,3.248048 15.40156,12.220382 19.00811,18.966858 C 274.19329,78.746279 274,74.63231 274,190.56852 v 106.14832 l 5.63301,3.74011 c 18.35583,12.18758 32.77276,34.25094 37.594,57.53302 2.5374,12.25325 2.03243,30.52766 -1.17465,42.51003 -8.33619,31.14579 -34.53779,57.36429 -65.55236,65.59462 -11.52914,3.05949 -32.00207,3.54133 -43.53532,1.02463 z M 243,464.86159 c 27.08592,-4.87943 51.39942,-23.65252 64.48655,-49.79176 10.46475,-20.9015 11.59538,-48.85325 2.86847,-70.91487 -6.85681,-17.33403 -18.35214,-31.54027 -34.70091,-42.88435 L 271,298.04122 V 190.48906 C 271,84.259009 270.97447,82.861131 268.92333,76.772419 255.077,35.670209 198.11332,35.478934 184.00438,76.487275 182.04715,82.176043 182,84.83929 182,189.69228 v 107.37919 l -2.25,2.02087 c -1.2375,1.11148 -5.64034,4.65376 -9.78409,7.87174 -13.13018,10.19671 -23.3003,24.84994 -28.82815,41.53592 -7.5857,22.89768 -5.87536,46.07013 5.01861,67.99436 17.8255,35.87402 57.15555,55.51688 96.84363,48.36723 z M 210.5,449.56368 C 194.82254,445.89684 185.24288,440.47332 173.47686,428.60307 166.32019,421.383 163.57653,417.74174 160.2131,411 c -14.29403,-28.65129 -9.93252,-62.08238 11.03315,-84.5695 6.60841,-7.08797 18.97091,-16.41249 23.78589,-17.9407 1.89561,-0.60165 1.93989,-2.89098 2.20119,-113.8019 L 197.5,81.5 l 2.2022,-4.11647 c 3.38401,-6.325571 6.64002,-9.702904 12.46508,-12.92958 4.80292,-2.660476 6.22687,-2.953238 14.33272,-2.946779 7.40559,0.0059 9.74821,0.405704 13.22344,2.256775 5.72639,3.050145 11.09335,8.610822 13.65384,14.146663 2.11784,4.578842 2.12342,4.847981 2.42918,117.089391 l 0.30645,112.5 8.50706,4.95536 c 9.64491,5.61816 20.7491,16.54917 26.24529,25.83598 1.8509,3.12743 4.76897,9.62878 6.48461,14.44745 2.96444,8.32612 3.11935,9.50612 3.11935,23.76121 0,14.25509 -0.15491,15.43509 -3.11935,23.76121 C 292.92247,412.69633 288.71658,419.28342 279,429 c -9.77542,9.77542 -16.40876,13.99242 -28.73879,18.27002 -7.58471,2.63134 -10.43977,3.08365 -21.26121,3.36826 -8.30767,0.21849 -14.51232,-0.14191 -18.5,-1.0746 z m 34.44341,-3.6828 c 24.66149,-6.56305 44.6281,-26.69763 51.16374,-51.59416 4.37961,-16.68345 2.10575,-35.33062 -6.28893,-51.57344 C 284.1953,331.83352 271.77333,319.23566 261,313.48701 l -7.5,-4.002 L 253,195.9925 252.5,82.5 250.32242,78.431786 c -2.6555,-4.961063 -9.2672,-11.091593 -14.18286,-13.15068 -5.40781,-2.265245 -15.07206,-1.976287 -20.41548,0.610417 -5.67344,2.746465 -11.08402,8.176841 -13.95756,14.008621 L 199.5,84.5 l -0.28262,112.71261 -0.28261,112.71261 -6.99526,3.67591 c -24.88248,13.07537 -40.73408,43.68488 -36.94693,71.34465 2.32416,16.97476 9.02642,30.30192 21.41219,42.57728 18.55009,18.38473 43.41344,25.04428 68.53864,18.35782 z m -33.82738,-11.86306 c -38.17207,-10.31607 -55.76285,-54.09986 -35.61138,-88.63739 6.32611,-10.84231 20.02268,-21.59423 32.3779,-25.41692 L 213.5,318.22548 213.75478,217.61274 214.00957,117 H 226.5 238.99043 l 0.25479,100.5448 0.25478,100.5448 6.69399,2.33902 c 28.18412,9.84815 44.62748,39.20442 38.40894,68.57138 -4.25164,20.07833 -20.21838,37.9706 -39.32082,44.06276 -9.87491,3.14931 -24.53087,3.559 -34.16608,0.95506 z m 29.33167,-2.54621 c 19.46752,-5.07065 35.95326,-21.55639 41.02391,-41.02391 6.53037,-25.07179 -6.10559,-52.6326 -29.49895,-64.34134 -4.42941,-2.21699 -9.61029,-4.32296 -11.51307,-4.67992 L 237,320.77742 V 220.38871 120 h -10.49519 -10.4952 l -0.2548,100.15461 -0.25481,100.15461 -5,1.70062 c -18.8096,6.39758 -31.92159,19.28815 -37.9814,37.34002 -3.16006,9.41365 -3.56555,22.84263 -0.95568,31.65014 5.69136,19.20658 20.19544,33.97353 39.4088,40.12304 7.03293,2.25099 21.5146,2.42224 29.47598,0.34857 z m -57.08099,-44.38967 c -5.06213,-3.08674 -6.36809,-5.76951 -6.35484,-13.05445 0.0326,-17.90074 9.96522,-33.88773 26.05903,-41.94294 9.62426,-4.81709 15.18049,-5.842 20.23086,-3.73183 6.55947,2.74073 9.58037,11.10697 6.30062,17.4493 -1.94173,3.7549 -4.43444,5.73219 -9.10238,7.2203 -10.53429,3.35825 -16.3726,10.73194 -17.9803,22.70882 -1.44796,10.78697 -10.89552,16.38596 -19.15299,11.3508 z m 12.6648,-3.83194 c 2.50929,-2.25283 3.22255,-3.88692 3.94529,-9.03867 1.72711,-12.31114 7.22553,-19.33207 18.31921,-23.39181 6.87524,-2.516 9.70399,-5.66668 9.70399,-10.80836 0,-4.28554 -3.3006,-8.54653 -7.42134,-9.58077 -10.25506,-2.57386 -29.71462,10.64408 -36.39577,24.72189 -3.56941,7.52109 -5.68221,17.3726 -4.76936,22.23849 1.48065,7.89256 10.72336,11.15139 16.61798,5.85923 z M 306,264.5 V 254 h 36 36 v 10.5 10.5 h -36 -36 z m 70,0 V 257 h -34 -34 v 7.5 7.5 h 34 34 z M 306,225 v -10 h 21.5 21.5 v 10 10 H 327.5 306 Z m 40,0 v -8 h -19 -19 v 8 8 h 19 19 z M 306.21502,185.75 306.5,175.5 h 35.5 35.5 l 0.28498,10.25 0.28499,10.25 H 342 305.93003 Z M 376,185.5 V 178 h -34 -34 v 7.5 7.5 h 34 34 z M 306.68639,156.35305 C 306.30887,155.97554 306,151.23272 306,145.81345 v -9.85323 l 21.25,0.26989 21.25,0.26989 v 10 10 l -20.56361,0.26972 c -11.30999,0.14835 -20.87249,-0.0392 -21.25,-0.41667 z M 346,146.5 V 139 h -19 -19 v 7.5 7.5 h 19 19 z M 306,107 V 97 h 36 36 v 10 10 h -36 -36 z m 70,0 v -8 h -34 -34 v 8 8 h 34 34 z"
       id="path2558" />
    <path
       style="fill:#000000;stroke:#000000;stroke-width:0.661113"
       d="m 212.45361,464.83148 c -8.89049,-1.57501 -16.78729,-4.15997 -25.09884,-8.21592 -25.19051,-12.29269 -42.73114,-35.08195 -48.89938,-63.5314 -1.67048,-7.70468 -1.67755,-25.09689 -0.0133,-32.82094 3.83844,-17.81519 11.81682,-33.35312 23.15216,-45.08895 2.20772,-2.28572 7.78794,-7.18485 12.40051,-10.88695 l 8.38648,-6.73111 0.20535,-108.03583 c 0.19549,-102.851127 0.26362,-108.209996 1.41966,-111.66471 4.2675,-12.753014 12.22423,-21.920796 23.85204,-27.48243 15.5509,-7.438061 34.76373,-4.609133 48.03506,7.072761 6.0589,5.333256 11.94687,15.287912 13.65111,23.079608 0.58344,2.667511 0.87354,31.327921 1.12165,110.814601 l 0.33466,107.21649 5.67711,3.95876 c 7.90041,5.50912 18.71781,16.44704 23.77739,24.04232 10.09882,15.15998 14.32264,27.95654 15.0402,45.56593 1.09082,26.76916 -7.73692,49.09927 -26.86606,67.95876 -12.51411,12.33771 -26.93338,20.22292 -44.17577,24.15761 -6.21848,1.41905 -25.33399,1.77232 -32,0.5914 z m 26.55194,-14.55772 c 9.25332,-0.74169 23.61943,-6.87349 32.21325,-13.7494 13.53776,-10.83155 21.36944,-21.72298 27.09375,-37.679 l 1.89364,-5.27835 v -16.82474 c 0,-18.67662 -0.0276,-18.83508 -5.45674,-31.34021 -5.97146,-13.75425 -18.20113,-26.69727 -33.39302,-35.34081 l -5.02653,-2.85988 -0.0582,-69.97182 c -0.032,-38.4845 -0.2573,-89.28236 -0.50068,-112.88413 l -0.44249,-42.912319 -2.12323,-4.312892 c -2.38036,-4.835193 -7.75799,-10.400841 -13.04037,-13.496301 -3.26398,-1.912681 -3.40745,-1.933186 -13.52577,-1.933186 h -10.22681 l -4.15142,2.251027 c -4.94149,2.67942 -10.22076,8.160734 -13.10793,13.609567 l -2.08408,3.93322 -0.32446,110.845364 c -0.17845,60.96495 -0.58512,111.86623 -0.90371,113.11395 -0.45645,1.78766 -1.27468,2.65085 -3.8595,4.07161 -8.60236,4.72834 -20.53839,15.1708 -26.3477,23.05079 -5.83978,7.9213 -11.04176,20.07154 -12.98131,30.32035 -1.19592,6.31937 -1.04138,20.99833 0.29223,27.75823 1.95193,9.89403 5.82988,19.69139 10.68886,27.00465 3.25192,4.89447 14.5726,16.40588 20.44912,20.79364 8.51439,6.35736 21.42379,11.21087 32.3299,12.155 5.70158,0.49358 13.8475,0.37663 22.59318,-0.32436 z"
       id="path6303" />
    <path
       style="fill:#000000;stroke:#000000;stroke-width:0.661113"
       d="m 215.75258,468.03232 c -23.93829,-2.70379 -46.66446,-15.37279 -61.3785,-34.21625 -9.41545,-12.05784 -16.77054,-27.96749 -18.75981,-40.57896 -0.90307,-5.72527 -0.87215,-27.91112 0.0472,-33.83624 1.5601,-10.05508 7.53703,-24.01717 15.18548,-35.47325 5.21364,-7.80913 16.281,-18.99534 23.16518,-23.41394 l 5.10488,-3.27657 0.0392,-87.42268 c 0.0401,-89.40302 0.581,-125.535182 1.97538,-131.95876 2.02879,-9.346138 11.16072,-21.425661 20.65948,-27.327904 16.72387,-10.39171 39.43531,-8.972319 54.26237,3.391221 7.0806,5.904156 13.58347,15.376099 15.4411,22.491174 1.64773,6.311132 1.94441,24.464199 1.96672,120.337099 l 0.0233,100.08746 6.08075,4.15997 c 18.06334,12.35745 32.19342,33.9008 37.20258,56.72069 2.42277,11.03719 1.87338,31.10458 -1.16962,42.72239 -7.98271,30.47709 -35.24596,57.63385 -65.53639,65.28041 -8.98101,2.26717 -25.09958,3.35436 -34.30928,2.31414 z m 29.36082,-3.20416 c 25.73628,-5.68806 48.95135,-23.57301 61.33445,-47.25222 12.15931,-23.25124 13.30301,-52.38047 3.00158,-76.44822 -6.42706,-15.01585 -17.98701,-29.13185 -31.88054,-38.9297 l -6.06374,-4.27621 -0.0428,-93.04338 c -0.0236,-51.17386 -0.28265,-100.31761 -0.57573,-109.208327 -0.50144,-15.211419 -0.63589,-16.434328 -2.27943,-20.731678 -4.47488,-11.700458 -12.05818,-19.989048 -22.97839,-25.11551 -13.26969,-6.229426 -29.97999,-5.401037 -42.64244,2.113936 -8.35643,4.95941 -16.31667,15.193099 -19.64765,25.259025 -1.13571,3.432015 -1.21969,9.497577 -1.54811,111.815864 l -0.34725,108.187 -8.24742,6.69115 c -9.73011,7.89406 -16.41919,14.76183 -21.02347,21.58509 -21.97837,32.57053 -21.043,73.56509 2.40288,105.31089 13.61309,18.43218 35.43397,31.33223 59.19791,34.99657 6.01499,0.9275 25.51201,0.33383 31.3402,-0.95428 z"
       id="path6342" />
    <path
       style="fill:#000000;stroke:#000000;stroke-width:0.661113"
       d=""
       id="path6381" />
    <path
       style="fill:#000000;stroke:#000000;stroke-width:0.661113"
       d="m 210.63854,467.47412 c -12.68421,-2.07788 -28.68624,-9.02756 -39.53607,-17.17048 -11.27627,-8.46298 -21.66581,-21.22271 -27.96197,-34.34098 -3.44837,-7.1848 -6.6039,-16.50319 -7.53837,-22.26108 -0.86324,-5.31899 -0.85868,-29.28744 0.007,-34.61932 1.3567,-8.36016 7.45456,-23.3665 13.03805,-32.08562 6.50521,-10.15847 17.26472,-21.36316 25.72601,-26.79045 l 4.62886,-2.96908 0.31435,-103.91752 c 0.21568,-71.29955 0.54966,-105.988511 1.06404,-110.515466 0.64559,-5.681778 1.17565,-7.468291 3.81736,-12.86598 2.63355,-5.381039 3.9629,-7.158957 9.3939,-12.563747 7.21839,-7.183554 12.50638,-10.229048 21.87432,-12.598 4.63822,-1.17291 6.7606,-1.341533 13.13629,-1.043685 8.04419,0.375794 12.2542,1.377207 18.79673,4.471078 11.55667,5.464986 22.78889,19.478201 24.84961,31.002132 0.547,3.058911 0.83661,34.284538 1.02841,110.883378 l 0.267,106.62538 4.73623,3.23029 c 18.91721,12.90227 32.30895,32.54466 38.18894,56.01379 1.94623,7.76809 2.40846,25.23263 0.93296,35.25064 -2.83435,19.24417 -11.36301,35.57191 -26.3923,50.52689 -13.46969,13.4031 -29.26038,22.08157 -45.7387,25.13772 -7.62338,1.41386 -27.5563,1.75927 -34.63224,0.60011 z m 17.62897,-1.62548 c 0.23274,-0.37657 -1.91842,-0.61856 -5.40435,-0.60796 -10.75764,0.0327 -22.05066,-2.81503 -34.3065,-8.65107 -23.57333,-11.22526 -40.64146,-31.51797 -48.00993,-57.08017 -2.27089,-7.87802 -3.04146,-13.61515 -3.05793,-22.76717 -0.0223,-12.42459 2.04446,-22.63758 6.92127,-34.20095 6.51363,-15.44442 14.21488,-25.17323 30.16516,-38.10696 l 7.64739,-6.2011 0.44867,-26.88983 c 0.24676,-14.7894 0.45033,-61.62797 0.45237,-104.0857 0.002,-42.45773 0.25438,-79.868039 0.56074,-83.134019 0.63997,-6.822255 2.27931,-11.580084 5.86879,-17.032878 6.35557,-9.654747 16.39471,-16.835718 27.02412,-19.330269 6.6402,-1.558348 17.47927,-0.993133 23.80841,1.241515 12.55388,4.432439 21.58724,13.238368 27.04118,26.360369 1.60935,3.872039 1.75308,5.091088 2.19984,18.658171 0.2629,7.983501 0.49027,37.525771 0.50527,65.649481 0.015,28.12371 0.22826,70.96267 0.47391,95.19767 l 0.44663,44.06365 4.48943,3.26534 c 21.45441,15.60462 34.95058,36.43252 38.61997,59.60006 1.2803,8.08352 0.90306,25.94278 -0.69896,33.08978 -2.62943,11.73061 -7.39275,22.56022 -13.92985,31.6701 -15.61171,21.756 -38.50905,35.80266 -62.17232,38.14042 -4.08247,0.40332 -7.42268,0.96816 -7.42268,1.25521 0,0.76914 2.43414,0.64445 10.33622,-0.52952 18.41969,-2.73649 35.12694,-11.34565 49.09484,-25.29833 13.51022,-13.49549 21.22985,-27.32951 25.07151,-44.92956 2.21276,-10.13746 2.23968,-27.75738 0.0573,-37.53308 -2.68717,-12.03713 -6.4021,-20.79114 -13.15959,-31.00982 -4.86575,-7.358 -15.08676,-17.8708 -23.1443,-23.80505 l -6.51203,-4.79599 -0.37812,-105.31415 c -0.20795,-57.92278 -0.54634,-106.650232 -0.75196,-108.283222 -0.81456,-6.468868 -1.21328,-7.810987 -4.11626,-13.85567 -2.55885,-5.328129 -3.86379,-7.111568 -8.7024,-11.893319 -9.19382,-9.085806 -18.19851,-12.735089 -31.42411,-12.735089 -8.65495,0 -13.66542,1.182567 -20.87508,4.926919 -9.01677,4.682877 -16.11203,12.540461 -20.60518,22.819012 -1.50267,3.43751 -1.90429,5.642963 -2.46308,13.525773 -0.3672,5.180208 -0.60855,14.169076 -0.53632,19.975256 0.0722,5.80619 0.0784,50.93609 0.0138,100.28866 l -0.11752,89.73196 -7.03105,5.60825 c -9.91394,7.90776 -14.22491,12.02432 -18.97175,18.11622 -19.10882,24.52345 -24.35913,56.23443 -14.11724,85.26582 10.05188,28.49282 33.73225,50.06852 63.21438,57.59597 8.615,2.1996 22.59333,3.40699 23.44727,2.02527 z m 8.96799,-15.19765 c 18.42142,-1.793 37.17729,-12.86827 49.51061,-29.23582 6.63592,-8.80654 14.39983,-25.88542 13.16584,-28.96198 l -0.61181,-1.52535 -0.0418,1.51334 c -0.0585,2.11599 -4.35564,13.46696 -7.04537,18.61037 -3.26133,6.23646 -7.85892,12.06232 -14.86393,18.83491 -13.29134,12.85036 -26.44175,18.9046 -43.78201,20.15654 -18.83551,1.35989 -33.94887,-2.11035 -46.63747,-10.70861 -10.12331,-6.85993 -20.85784,-18.17249 -25.41398,-26.78245 -14.01244,-26.48003 -11.93621,-57.08852 5.43832,-80.17339 6.08125,-8.07993 15.57608,-16.37872 25.14449,-21.97711 3.53514,-2.06837 4.1117,-2.68594 4.48125,-4.79998 0.23327,-1.33442 0.58845,-52.15816 0.78929,-112.94167 l 0.36516,-110.51546 2.38381,-4.559629 c 3.07155,-5.875093 7.4813,-10.241115 13.26729,-13.135728 3.11368,-1.557714 4.2822,-2.438556 3.58823,-2.704856 -1.53188,-0.587838 -8.63156,3.985644 -12.5547,8.087508 -1.87901,1.964601 -4.34496,5.314212 -5.4799,7.44358 l -2.06353,3.871579 -0.2852,75.055476 c -0.44215,116.36237 -0.83504,149.3236 -1.79377,150.48797 -0.4493,0.54567 -2.4499,2.02789 -4.44577,3.29382 -10.01722,6.35365 -21.53011,17.02185 -26.47375,24.53141 -4.47656,6.80006 -8.45152,15.94714 -10.89536,25.07217 -1.48133,5.53107 -1.66684,24.46994 -0.307,31.34021 2.08848,10.55148 7.37222,22.92751 12.53324,29.3564 11.69062,14.56259 24.17742,23.64428 38.52782,28.02142 9.42218,2.87395 20.26784,3.63324 33.50003,2.34533 z m 6.88821,-4.25461 c 7.85495,-2.0245 19.27992,-7.49422 25.44933,-12.1839 18.08924,-13.75053 28.98366,-35.22852 28.98366,-57.14032 0,-26.98151 -14.66074,-51.40288 -38.8276,-64.67775 l -5.82166,-3.19783 -0.43795,-78.55706 c -0.24087,-43.20638 -0.43809,-94.2234 -0.43826,-113.37117 l -3e-4,-34.814113 -2.05558,-3.642284 c -2.7241,-4.826844 -9.00472,-11.018914 -13.29296,-13.105558 -6.68111,-3.251 -16.90823,-2.907434 -23.78996,0.799191 -4.10685,2.212019 -10.09542,8.64393 -12.82027,13.769361 l -2.14432,4.033477 V 196.82964 309.35087 l -5.11341,2.79915 c -11.99376,6.56555 -20.08662,13.76673 -26.78499,23.83376 -16.02485,24.08385 -17.03329,53.22039 -2.6696,77.13142 3.72454,6.20018 13.51219,16.83834 19.94714,21.68046 8.29798,6.24401 19.05414,10.93928 29.46622,12.86257 8.04851,1.48671 21.92467,0.90979 30.35051,-1.26185 z m 55.48353,-88.04897 c -1.15983,-5.56259 -4.82393,-14.43006 -8.53904,-20.66529 -6.04597,-10.14724 -16.35833,-20.00677 -28.63233,-27.37507 l -6.10021,-3.66207 -0.17075,-72.6627 -0.17076,-72.66269 -0.1479,73.23711 -0.1479,73.23711 5.7313,3.29897 c 10.42539,6.0009 21.73349,16.28963 27.51779,25.03718 5.56796,8.42037 10.81714,22.84367 11.0536,30.37224 l 0.12476,3.97203 0.23505,-3.6926 c 0.12927,-2.03093 -0.20985,-5.82633 -0.75361,-8.43422 z m -43.59587,-236.4505 c -0.28635,-20.41237 -0.57619,-38.164328 -0.6441,-39.44879 -0.18446,-3.48909 -3.47703,-9.026224 -8.07781,-13.584491 -4.99825,-4.952072 -9.8396,-7.52439 -14.01694,-7.447508 l -3.00448,0.0553 3.64718,0.785766 c 6.99293,1.50659 15.03366,7.897884 18.38939,14.617089 2.32489,4.655131 2.64501,9.712122 2.67673,42.283904 0.0269,27.63501 0.39985,39.85213 1.21653,39.85213 0.18377,0 0.0999,-16.70103 -0.1865,-37.1134 z"
       id="path6420" />
    <path
       style="fill:#000000;stroke:#000000;stroke-width:0.661113"
       d="m 211.84973,467.72347 c -5.54875,-0.80929 -12.9617,-2.9267 -19.84973,-5.66982 -12.0835,-4.81218 -20.80545,-10.62475 -30.38733,-20.25106 -13.11498,-13.17579 -22.10739,-29.37295 -25.68541,-46.26467 -1.39835,-6.60157 -1.37643,-31.54155 0.0337,-38.36853 2.09662,-10.15038 7.45793,-22.43207 14.24051,-32.62214 5.09324,-7.65203 16.80704,-19.58602 23.81913,-24.26685 l 5.1134,-3.4134 0.031,-89.5469 c 0.0312,-89.94432 0.53128,-123.599345 1.92995,-129.880681 1.67175,-7.507662 7.78232,-16.596196 15.82003,-23.52984 4.33755,-3.741743 12.50814,-7.842893 18.54979,-9.31089 6.13564,-1.490831 16.2848,-1.373865 22.78014,0.262536 8.76397,2.207946 14.29023,5.409711 21.054,12.198117 10.04539,10.081972 12.62331,15.845473 13.55742,30.310496 0.32995,5.109476 0.61719,54.271402 0.63832,109.248722 l 0.0384,99.95876 5.63323,3.9264 c 7.36929,5.13645 13.10801,10.44886 18.45236,17.08159 10.27665,12.7541 17.53976,28.73587 19.83809,43.6518 1.26682,8.22154 0.8685,27.94569 -0.70619,34.96908 -3.92988,17.528 -11.8856,31.67505 -25.42903,45.21848 -15.92929,15.92929 -32.67949,24.29762 -52.71107,26.33424 -7.91474,0.8047 -21.12037,0.78721 -26.76077,-0.0354 z m 14.45955,-1.90904 c -0.22428,-0.36288 -1.115,-0.65979 -1.97938,-0.65979 -0.86439,0 -1.75511,0.29691 -1.97938,0.65979 -0.24315,0.39342 0.55595,0.6598 1.97938,0.6598 1.42342,0 2.22253,-0.26638 1.97938,-0.6598 z m 18.34378,-1.40599 c 32.32987,-6.35965 60.55712,-33.36168 68.74824,-65.76419 1.88476,-7.45576 3.23156,-22.26877 2.35126,-25.86074 -0.42419,-1.73089 -0.58352,-0.40884 -0.63613,5.27835 -0.2641,28.54865 -13.49611,53.32368 -38.13312,71.39871 -10.09519,7.40638 -26.23448,13.8326 -38.06498,15.15642 -3.669,0.41057 -6.94508,0.98851 -7.28017,1.28432 -0.83315,0.73547 5.21179,0.0421 13.0149,-1.49287 z m -29.89017,0.39489 c -24.0382,-3.35617 -45.98102,-16.72307 -60.86745,-37.07859 -6.1257,-8.37621 -12.85064,-23.64793 -14.99184,-34.04511 -0.43564,-2.11537 -0.93309,-3.70512 -1.10543,-3.53278 -0.17234,0.17235 0.27711,2.79382 0.99879,5.82552 8.34595,35.06028 34.97339,61.17544 69.87993,68.53553 3.16585,0.66753 7.24064,1.20398 9.05507,1.19212 2.54249,-0.0166 1.86166,-0.22223 -2.96907,-0.89669 z m 19.46391,-14.07625 c 2.38092,-0.25781 -0.90627,-0.4265 -8.24742,-0.42324 -6.7134,0.003 -10.72165,0.18147 -8.90722,0.39663 4.49434,0.53293 12.36599,0.54514 17.15464,0.0266 z m -27.35023,-2.45947 c -15.04413,-3.97778 -28.69324,-13.32792 -39.77406,-27.24666 -6.24863,-7.84898 -12.2366,-21.40543 -13.43059,-30.40611 -0.24192,-1.82373 -0.70417,-3.31587 -1.02722,-3.31587 -0.59899,0 -0.48798,0.72496 1.14319,7.46563 1.61822,6.68712 6.23363,17.52816 9.61415,22.58245 6.7652,10.11483 19.28913,21.13748 30.40059,26.75641 5.29736,2.6788 14.79495,5.80292 17.66129,5.80945 0.90721,0.002 -1.1571,-0.73832 -4.58735,-1.6453 z m 41.14966,0.0601 c 10.94255,-3.17102 22.48497,-10.06808 31.01472,-18.53252 4.29866,-4.26575 9.5486,-10.79737 11.07645,-13.78058 0.92481,-1.80574 -0.0188,-0.76381 -3.57211,3.94417 -3.89172,5.15641 -15.01231,15.80506 -19.87334,19.02996 -5.72565,3.79849 -14.29447,7.59863 -21.10091,9.35791 -3.33624,0.86233 -5.43106,1.58247 -4.65516,1.60031 0.7759,0.0178 3.97556,-0.71082 7.11035,-1.61925 z m -11.13266,-0.68998 c 15.59859,-2.39342 29.38691,-9.36194 40.26073,-20.34747 22.3495,-22.57915 27.5115,-54.45233 13.47585,-83.20777 -6.10212,-12.50167 -17.52287,-24.07631 -31.35711,-31.77964 l -5.36538,-2.98762 -0.43801,-66.74008 c -0.2409,-36.70704 -0.43817,-87.60768 -0.43837,-113.11253 l -3.5e-4,-46.372467 -1.64705,-3.250289 c -4.16233,-8.213968 -13.52253,-15.277927 -21.45726,-16.193369 -4.39503,-0.507061 -10.99731,0.59879 -15.10627,2.530225 -4.323,2.03205 -10.50248,8.517157 -13.42093,14.084712 l -2.47158,4.715041 v 112.233607 112.2336 l -3.39243,1.81424 c -24.39995,13.0489 -38.72519,34.46476 -41.1927,61.58199 -0.47173,5.18426 0.64458,15.32822 2.4534,22.29408 3.02817,11.66163 10.97874,24.53662 20.8372,33.74332 16.81924,15.70733 37.16998,22.14988 59.26026,18.7604 z m 57.33306,-39.14289 c 3.08986,-6.15228 5.67316,-13.08574 5.61558,-15.07194 -0.0187,-0.6465 -1.15602,1.94207 -2.52729,5.75238 -1.37128,3.81031 -3.43857,8.7835 -4.59398,11.05154 -1.15542,2.26805 -1.95101,4.12372 -1.76799,4.12372 0.18303,0 1.65618,-2.63507 3.27368,-5.8557 z M 137.57654,384.3299 c -0.44078,-4.22379 -0.48921,-4.33658 -0.56664,-1.31959 -0.0755,2.94187 0.45865,6.63434 0.88666,6.12926 0.0891,-0.10511 -0.0549,-2.26947 -0.32002,-4.80967 z m 14.96075,-0.82475 c -0.16596,-0.63505 -0.30174,-0.11546 -0.30174,1.15464 0,1.27011 0.13578,1.78969 0.30174,1.15464 0.16595,-0.63505 0.16595,-1.67422 0,-2.30928 z m -15.10828,-10.56051 c 0.42339,-19.79249 10.21931,-42.79307 24.41335,-57.32197 2.9516,-3.02123 14.57073,-13.06588 19.87585,-17.18254 0.15121,-0.11733 0.13163,-0.35661 -0.0435,-0.53174 -0.34803,-0.34802 -10.61044,7.8216 -16.39637,13.0527 -17.03551,15.4019 -27.06226,37.23076 -28.70023,62.48221 -0.23467,3.61762 -0.16384,5.91769 0.1675,5.43948 0.31575,-0.4557 0.62327,-3.12787 0.68339,-5.93814 z M 314.7249,359.83532 c -4.42059,-23.59115 -18.0439,-44.04722 -39.17763,-58.82713 -5.83568,-4.08119 -4.93809,-2.48168 1.09303,1.94781 10.95372,8.04481 20.03314,17.8263 26.52871,28.58005 6.35662,10.52371 9.81741,20.4409 11.40085,32.67014 0.56054,4.32922 0.87493,5.50259 1.01638,3.79341 0.11264,-1.36104 -0.27496,-5.03497 -0.86134,-8.16428 z m -159.34046,-5.04524 c 3.39421,-11.22188 9.23656,-20.93296 17.79806,-29.58369 6.00591,-6.06851 14.76764,-12.87946 19.94032,-15.50066 3.05496,-1.54806 3.16347,-1.70207 3.0983,-4.39726 l -0.0675,-2.79301 -0.52636,2.22962 c -0.28951,1.22629 -0.78228,2.41392 -1.09505,2.63917 -0.31277,0.22526 -1.90118,1.26862 -3.5298,2.31857 -9.30872,6.0012 -21.81255,17.45175 -26.37456,24.15285 -6.1792,9.07657 -11.46897,22.61836 -12.11344,31.01031 l -0.38002,4.94845 0.90376,-5.12745 c 0.49706,-2.82009 1.55291,-7.2737 2.34633,-9.8969 z m 144.28277,5.33363 c -0.21062,-0.52634 -0.36697,-0.37 -0.39862,0.39863 -0.0286,0.69553 0.12728,1.08522 0.34653,0.86598 0.21925,-0.21924 0.24268,-0.78832 0.0521,-1.26461 z m -1.75379,-6.90041 c -4.88861,-14.47263 -12.68622,-25.51561 -24.89187,-35.25182 -5.32897,-4.25082 -16.63804,-11.44089 -17.16548,-10.91346 -0.18883,0.18883 1.0577,1.1739 2.77007,2.18905 12.21122,7.23917 23.08641,16.58647 29.13499,25.04174 3.18068,4.44624 7.17926,12.59179 9.56576,19.48649 0.8404,2.42796 1.65182,4.29067 1.80313,4.13935 0.15132,-0.15132 -0.39615,-2.26242 -1.2166,-4.69135 z M 196.95069,292.78351 c 0.001,-5.17114 0.1422,-24.54433 0.31326,-43.05155 0.17696,-19.14569 0.0701,-32.51194 -0.24795,-31.01031 -0.78991,3.72962 -1.43496,83.46392 -0.67521,83.46392 0.34182,0 0.60864,-4.11319 0.6099,-9.40206 z M 183.01986,161.64948 c 0.0413,-40.5922 0.35022,-75.484631 0.69704,-78.722232 1.7387,-16.230821 15.22223,-30.635797 33.16245,-35.428726 3.50562,-0.936564 4.0056,-1.182979 1.8423,-0.907974 -13.49376,1.715364 -26.50815,11.821089 -33.04151,25.656875 -1.02815,2.177319 -2.21409,5.888659 -2.63543,8.247422 -0.55447,3.104045 -0.8124,32.172695 -0.9338,105.237115 -0.10361,62.35341 0.0239,90.98437 0.33355,74.8866 0.2757,-14.33402 0.53464,-58.87011 0.5754,-98.96908 z m 88.03324,25.73196 c -0.2957,-16.51134 -0.63557,-26.90309 -0.75527,-23.09278 -0.1197,3.81031 0.0288,31.12577 0.3299,60.70103 0.52469,51.52991 0.55619,52.49328 0.75526,23.09278 0.11426,-16.87422 -0.0342,-44.18969 -0.32989,-60.70103 z m -73.51646,-43.76117 0.0716,-61.905502 2.73672,-4.733672 c 3.45742,-5.980238 7.28281,-9.709265 12.93779,-12.611874 2.71029,-1.391149 3.9132,-2.296385 3.07778,-2.316153 -3.44719,-0.08157 -12.3921,7.59461 -16.3384,14.020992 l -2.91729,4.750681 -0.30508,66.309278 c -0.1678,36.4701 -0.0868,64.52784 0.18009,62.35052 0.26684,-2.17732 0.51739,-31.81624 0.55678,-65.86427 z m 58.25617,-27.82646 -0.58975,-34.969068 -1.83248,-3.628866 c -2.68383,-5.314812 -10.37352,-12.658586 -15.11075,-14.431012 -5.40841,-2.023546 -5.37868,-1.71574 0.0913,0.945682 5.36528,2.610467 10.83953,7.547904 13.59188,12.259074 2.5953,4.442323 3.05648,10.300283 3.06225,38.89681 0.005,22.10529 0.62791,42.01999 1.1754,37.54594 0.11102,-0.90722 -0.0635,-17.38557 -0.38789,-36.61856 z m 14.44363,-30.200097 c -0.50349,-6.019111 -1.05398,-8.69189 -2.44602,-11.876289 -5.40729,-12.369587 -14.29993,-20.893818 -26.47641,-25.379546 -3.576,-1.317373 -5.93558,-1.67841 -12.03566,-1.841567 l -7.58763,-0.202944 6.59794,0.491295 c 3.62887,0.270212 8.37938,1.014856 10.5567,1.654763 12.78653,3.757922 22.70011,13.011086 28.68819,26.77707 1.39515,3.207313 1.63468,5.046817 2.06198,15.835051 0.26591,6.713402 0.57844,22.894844 0.69451,35.958764 l 0.21103,23.75258 0.19255,-28.70103 c 0.1059,-15.78557 -0.0998,-32.196236 -0.45718,-36.468147 z"
       id="path6459" />
    <g
       id="g6538">
      <path
         style="fill:#000000;stroke:#000000;stroke-width:0.661113"
         d="m 211.15516,467.76461 c -9.49458,-1.49271 -22.51875,-6.29739 -31.86155,-11.75388 -14.84238,-8.66841 -28.51662,-23.84508 -36.39994,-40.39929 -7.17025,-15.05684 -8.16755,-20.40479 -7.82412,-41.95662 l 0.26095,-16.37647 2.19077,-6.59794 c 2.52801,-7.6136 6.19071,-15.7858 9.70045,-21.6436 6.1704,-10.29848 17.7987,-22.77768 27.1288,-29.11394 l 4.7835,-3.24857 0.0201,-91.42994 c 0.0213,-97.10849 0.48843,-123.23492 2.313,-129.368071 3.25023,-10.925408 12.95717,-22.032134 24.1993,-27.688958 7.43153,-3.739402 13.41942,-4.890805 23.20465,-4.461991 13.5573,0.594116 21.05194,3.92812 30.84064,13.719527 5.17437,5.175803 6.85855,7.379726 9.09147,11.89717 1.50733,3.049508 3.07263,7.177551 3.47844,9.173427 0.51581,2.536949 0.85743,35.877566 1.13533,110.803876 l 0.39751,107.175 5.60194,3.97997 c 14.93113,10.60798 26.61424,25.73219 33.30602,43.11587 3.99758,10.3848 5.02821,15.73771 5.43465,28.22658 0.63066,19.37885 -1.36128,29.89793 -8.3882,44.29663 -12.21273,25.0248 -36.90866,45.03903 -62.27459,50.46896 -6.94116,1.48585 -29.69867,2.22625 -36.33909,1.18226 z m 13.98574,-1.68901 c -0.21925,-0.21924 -0.78833,-0.24268 -1.26461,-0.0521 -0.52634,0.21062 -0.37,0.36697 0.39863,0.39862 0.69552,0.0286 1.08522,-0.12729 0.86598,-0.34653 z m 11.89003,-0.71598 c -0.63505,-0.16595 -1.67423,-0.16595 -2.30928,0 -0.63505,0.16596 -0.11546,0.30174 1.15464,0.30174 1.2701,0 1.78969,-0.13578 1.15464,-0.30174 z m 13.84192,-2.58299 c -0.21925,-0.21924 -0.78832,-0.24268 -1.2646,-0.0521 -0.52634,0.21062 -0.37,0.36697 0.39863,0.39862 0.69552,0.0286 1.08522,-0.12729 0.86597,-0.34653 z m 7.23171,-2.66519 c -0.32673,-0.32674 -3.75404,0.91825 -3.75404,1.36368 0,0.17155 0.90587,-0.004 2.01306,-0.38985 1.10718,-0.38597 1.89063,-0.82419 1.74098,-0.97383 z m -61.8159,0.26945 c -20.70016,-9.10689 -31.65165,-17.69753 -44.42142,-34.84534 -1.1884,-1.59584 -1.18929,-1.59089 -0.0645,0.36136 5.28826,9.17825 19.37767,22.29403 30.83972,28.70859 4.38264,2.45268 13.6501,6.59235 14.63584,6.53767 0.36289,-0.0201 -0.0825,-0.36316 -0.98969,-0.76228 z m 65.31959,-1.49429 c 0.90721,-0.51861 1.35257,-0.94293 0.98969,-0.94293 -0.36289,0 -1.40206,0.42432 -2.30928,0.94293 -0.90722,0.51861 -1.35258,0.94293 -0.98969,0.94293 0.36289,0 1.40206,-0.42432 2.30928,-0.94293 z m 4.3275,-2.01578 c 1.20763,-0.96751 1.18657,-0.98124 -0.36874,-0.24053 -2.01965,0.96186 -2.39396,1.26662 -1.55566,1.26662 0.35401,0 1.21999,-0.46174 1.9244,-1.02609 z m 6.88899,-3.95625 c 0,-0.18145 -0.89072,0.13071 -1.97938,0.69368 -1.08866,0.56297 -1.97938,1.17203 -1.97938,1.35347 0,0.18145 0.89072,-0.13071 1.97938,-0.69368 1.08866,-0.56297 1.97938,-1.17203 1.97938,-1.35347 z m 17.48454,-14.27799 5.27835,-5.4543 -6.26804,5.93551 c -3.44743,3.26453 -7.60413,7.06611 -9.23712,8.44795 -2.14274,1.81319 -1.86728,1.67926 0.98969,-0.48121 2.17732,-1.64651 6.33403,-5.44808 9.23712,-8.44795 z m -50.59828,8.29878 c 22.31493,-3.95752 41.77982,-19.2078 51.92008,-40.67817 9.43447,-19.97596 8.80967,-42.8594 -1.72463,-63.16441 -6.47571,-12.48202 -17.52973,-23.38789 -31.65356,-31.2293 l -4.34504,-2.41233 -0.43799,-49.98331 c -0.24088,-27.49081 -0.43819,-78.45025 -0.43845,-113.24319 l -4.8e-4,-63.259898 -2.09888,-3.70918 c -2.56879,-4.539626 -9.42671,-11.349715 -13.33439,-13.241392 -6.3633,-3.080421 -15.88678,-2.943329 -22.60642,0.325424 -4.27841,2.081222 -11.0456,9.17368 -13.91908,14.588102 l -2.14432,4.040512 V 197.40418 309.84015 l -3.13403,1.51217 c -6.02952,2.90926 -14.39559,8.96753 -19.74808,14.30054 -13.58902,13.53955 -21.45583,32.20878 -21.38896,50.75951 0.0727,20.15881 7.0267,36.37425 21.92999,51.13642 17.37909,17.21452 38.6084,23.73441 63.12424,19.38657 z m 36.722,-15.00754 c 2.26124,-1.9976 5.40426,-5.21093 6.98449,-7.14073 1.83817,-2.24481 -0.087,-0.66701 -5.34433,4.38005 -4.51962,4.33883 -8.36594,8.02595 -8.54739,8.19359 -2.15383,1.98997 3.85243,-2.73428 6.90723,-5.43291 z m 20.47422,-0.42267 c 0.65681,-0.72577 1.04576,-1.31958 0.86431,-1.31958 -0.18144,0 -0.86729,0.59381 -1.52411,1.31958 -0.65682,0.72578 -1.04576,1.31959 -0.86431,1.31959 0.18144,0 0.86729,-0.59381 1.52411,-1.31959 z m 2.39344,-3.13402 c 0.8207,-1.04647 0.79736,-1.06981 -0.24911,-0.24911 -1.09906,0.86194 -1.44857,1.40375 -0.90553,1.40375 0.13701,0 0.65659,-0.51958 1.15464,-1.15464 z m -151.07609,-9.56701 c -1.41484,-2.63092 -3.25708,-6.48708 -4.09388,-8.56923 -0.83679,-2.08214 -1.63408,-3.67308 -1.77175,-3.53542 -0.63225,0.63226 7.18703,16.88816 8.1234,16.88816 0.17306,0 -0.84293,-2.15258 -2.25777,-4.78351 z m 19.03316,2.55502 c 0,-0.13701 -0.51959,-0.6566 -1.15464,-1.15464 -1.04647,-0.8207 -1.0698,-0.79736 -0.24911,0.24911 0.86194,1.09905 1.40375,1.44856 1.40375,0.90553 z m 120.16664,-1.56533 c 0.8207,-1.04647 0.79736,-1.06981 -0.24911,-0.24911 -0.63505,0.49805 -1.15464,1.01764 -1.15464,1.15464 0,0.54304 0.54181,0.19353 1.40375,-0.90553 z m -123.19638,-2.47422 c -0.59443,-0.90722 -1.21262,-1.64949 -1.37374,-1.64949 -0.32334,0 0.29888,1.19526 1.28803,2.47423 1.13606,1.46893 1.19801,0.87285 0.0857,-0.82474 z m -3.37387,-5.91971 c -0.9739,-1.98573 -1.88136,-3.49979 -2.01657,-3.36457 -0.29641,0.29641 3.03156,6.975 3.47567,6.975 0.17139,0 -0.48521,-1.62469 -1.4591,-3.61043 z m 148.51103,-0.7125 c 0.22532,-0.58716 0.11471,-0.85201 -0.2593,-0.62085 -0.35873,0.2217 -0.65224,0.68249 -0.65224,1.02396 0,0.94906 0.47292,0.73993 0.91154,-0.40311 z m 1.68102,-4.40428 c 0.40825,-1.1711 0.47066,-1.83914 0.1387,-1.48453 -0.70335,0.75131 -1.64656,3.6138 -1.19078,3.6138 0.1704,0 0.64383,-0.95817 1.05208,-2.12927 z m -12.12454,-9.66545 c 0.19151,-0.95208 -0.25917,-0.24652 -1.00151,1.56792 -1.84657,4.51337 -2.3082,6.5975 -0.67571,3.05063 0.73095,-1.58812 1.4857,-3.66647 1.67722,-4.61855 z m 13.28166,5.07307 c -0.21062,-0.52634 -0.36697,-0.37 -0.39862,0.39863 -0.0286,0.69553 0.12729,1.08522 0.34653,0.86598 0.21925,-0.21924 0.24268,-0.78832 0.0521,-1.26461 z M 153.17924,389.1134 c -0.18304,-0.45361 -0.33279,-0.0825 -0.33279,0.82474 0,0.90722 0.14975,1.27835 0.33279,0.82475 0.18303,-0.45361 0.18303,-1.19588 0,-1.64949 z m 162.30927,-5.27835 c -0.18303,-0.45361 -0.33279,-0.0825 -0.33279,0.82474 0,0.90722 0.14976,1.27835 0.33279,0.82475 0.18304,-0.45361 0.18304,-1.19588 0,-1.64949 z m 0.0412,-7.24591 c -0.14684,-1.18588 -0.27002,-0.37471 -0.27372,1.80261 -0.004,2.17732 0.11644,3.14759 0.26699,2.15615 0.15055,-0.99144 0.15358,-2.77288 0.007,-3.95876 z m -0.68725,-15.80563 c -0.21062,-0.52634 -0.36697,-0.37 -0.39862,0.39862 -0.0286,0.69553 0.12729,1.08523 0.34653,0.86598 0.21925,-0.21924 0.24268,-0.78832 0.0521,-1.2646 z m -17.52485,-8.89897 c -0.77779,-1.33754 -0.96561,-0.90943 -0.32892,0.74975 0.22627,0.58965 0.55039,0.93312 0.72027,0.76324 0.16988,-0.16988 -0.006,-0.85073 -0.39135,-1.51299 z m -1.31958,-3.29897 c -0.77779,-1.33754 -0.96562,-0.90943 -0.32893,0.74975 0.22627,0.58965 0.55039,0.93312 0.72027,0.76324 0.16988,-0.16988 -0.006,-0.85072 -0.39134,-1.51299 z m -149.7923,-10.44124 c 5.46207,-11.69683 12.54444,-20.634 24.30045,-30.66449 4.38243,-3.73917 7.96805,-6.95143 7.96805,-7.13834 0,-0.18691 -0.51959,0.0985 -1.15464,0.63432 -0.63505,0.53577 -3.85842,3.23795 -7.16303,6.00484 -7.59314,6.35757 -13.9537,13.21409 -18.17094,19.58779 -3.35118,5.0648 -8.6571,15.51117 -9.3984,18.50371 l -0.40861,1.64949 0.78114,-1.64949 c 0.42963,-0.90721 1.89032,-4.02474 3.24598,-6.92783 z m 147.10524,4.3526 c -1.87137,-3.66818 -2.35753,-3.44962 -0.5594,0.25148 0.7895,1.62503 1.54862,2.84143 1.68694,2.70312 0.13831,-0.13832 -0.36908,-1.46789 -1.12754,-2.9546 z m -128.55844,-7.48662 c 1.26511,-1.90516 3.8903,-5.24536 5.83377,-7.42268 2.20388,-2.46907 2.59888,-3.08978 1.0497,-1.64949 -2.44701,2.27501 -6.39993,7.17148 -8.65556,10.72165 -2.09709,3.30062 -0.57286,1.88186 1.77209,-1.64948 z m 140.72289,-0.98969 c -6.3145,-11.52794 -17.33355,-23.84416 -28.5207,-31.87816 -4.23315,-3.04002 -3.37373,-1.90836 1.31332,1.72934 10.33578,8.02179 21.04313,20.13147 26.35027,29.80136 1.44925,2.64059 2.78385,4.80107 2.9658,4.80107 0.18194,0 -0.76697,-2.00413 -2.10869,-4.45361 z m -20.1146,-3.69155 c 0,-0.12521 -0.66804,-0.79325 -1.48453,-1.48454 l -1.48454,-1.2569 1.2569,1.48453 c 1.18118,1.3951 1.71217,1.78491 1.71217,1.25691 z m -5.96035,-6.55931 c -2.00809,-1.89193 -4.97717,-4.44286 -6.59794,-5.66875 -2.10001,-1.58836 -1.81108,-1.20915 1.00544,1.31959 2.17376,1.95166 4.99438,4.50538 6.26804,5.67495 1.27366,1.16956 2.4642,2.12368 2.64564,2.12027 0.18144,-0.003 -1.31309,-1.55414 -3.32118,-3.44606 z m -98.61696,-5.74914 c 0.65681,-0.72577 1.04575,-1.31959 0.86431,-1.31959 -0.18144,0 -0.86729,0.59382 -1.52411,1.31959 -0.65681,0.72577 -1.04576,1.31959 -0.86431,1.31959 0.18144,0 0.86729,-0.59382 1.52411,-1.31959 z m 15.46049,-12.07683 -0.0446,-1.44894 -0.68952,1.42526 c -0.37923,0.7839 -3.31641,3.24264 -6.52705,5.46387 -8.1783,5.65801 -7.90538,6.03877 0.4021,0.56099 5.37875,-3.54665 6.89392,-4.8723 6.85913,-6.00118 z m 73.28177,9.79925 c 0,-0.44885 -5.17201,-3.87552 -8.90721,-5.90139 -3.74495,-2.03116 -2.92929,-1.39191 3.8417,3.01079 5.23949,3.40688 5.06551,3.3076 5.06551,2.8906 z m -72.7427,-66.13024 c -0.10376,-9.00663 -0.18875,-1.82723 -0.18887,15.95421 -1.2e-4,17.78144 0.0848,25.1505 0.18864,16.37569 0.10388,-8.77482 0.10398,-23.32327 2.3e-4,-32.3299 z m -14.54424,9.52122 c -0.15726,-0.81649 -0.28593,-0.14845 -0.28593,1.48454 0,1.63299 0.12867,2.30103 0.28593,1.48453 0.15727,-0.81649 0.15727,-2.15257 0,-2.96907 z m 0.68825,-113.81443 c -0.10586,-7.5299 -0.19247,-1.36907 -0.19247,13.69072 0,15.05979 0.0866,21.22062 0.19247,13.69072 0.10586,-7.5299 0.10586,-19.85155 0,-27.38144 z m 14.51064,-4.61856 c -0.12694,-2.44948 -0.23081,-0.44536 -0.23081,4.45361 0,4.89897 0.10387,6.90309 0.23081,4.45361 0.12695,-2.44949 0.12695,-6.45773 0,-8.90722 z m 58.06385,-23.75258 c -0.12095,-3.17525 -0.21991,-0.57732 -0.21991,5.7732 0,6.35051 0.099,8.94845 0.21991,5.7732 0.12095,-3.17526 0.12095,-8.37114 0,-11.5464 z M 182.9257,94.515464 c -0.11492,-4.263918 -0.20896,-0.775258 -0.20896,7.752576 0,8.52784 0.094,12.0165 0.20896,7.75258 0.11493,-4.26392 0.11493,-11.241239 0,-15.505156 z m 87.74051,4.618557 c -0.14235,-1.360825 -0.25881,-0.247423 -0.25881,2.474229 0,2.72165 0.11646,3.83505 0.25881,2.47422 0.14234,-1.36082 0.14234,-3.58762 0,-4.948449 z m -0.66786,-11.216495 c -0.15117,-0.997938 -0.27486,-0.181444 -0.27486,1.814433 0,1.995876 0.12369,2.812371 0.27486,1.814433 0.15118,-0.997938 0.15118,-2.630928 0,-3.628866 z m -15.66173,-7.911921 c -0.6991,-1.087974 -0.72188,-1.084962 -0.36582,0.04836 0.20884,0.664732 0.43323,2.594629 0.49864,4.28866 l 0.11893,3.080059 0.24689,-3.128415 c 0.13579,-1.720629 -0.0886,-3.650526 -0.49864,-4.28866 z m 15.63986,3.664498 c -0.21061,-0.526339 -0.36696,-0.369996 -0.39862,0.398626 -0.0286,0.695532 0.12729,1.085223 0.34654,0.865979 0.21924,-0.219244 0.24268,-0.788316 0.0521,-1.264605 z m -86.44673,-1.360825 c -0.18303,-0.453608 -0.33279,-0.08247 -0.33279,0.824743 0,0.907216 0.14976,1.27835 0.33279,0.824742 0.18304,-0.453608 0.18304,-1.195876 0,-1.649485 z m 0.0137,-2.597938 c -0.21063,-0.526339 -0.36697,-0.369996 -0.39863,0.398626 -0.0286,0.695532 0.12729,1.085223 0.34654,0.865979 0.21924,-0.219244 0.24268,-0.788316 0.0521,-1.264605 z m 15.33136,-0.536082 c 0.74072,-1.555311 0.72698,-1.576364 -0.24052,-0.368739 -0.56435,0.704409 -1.02609,1.570389 -1.02609,1.924398 0,0.838296 0.30476,0.463991 1.26661,-1.555659 z M 186.12848,72.09412 c -0.31483,-0.31483 -2.38363,4.925317 -2.34504,5.93985 0.017,0.446265 0.6036,-0.655587 1.30362,-2.448559 0.70002,-1.792972 1.16866,-3.364053 1.04142,-3.491291 z m 14.65131,3.434813 c -0.20314,-0.203143 -0.57207,0.163043 -0.81985,0.813745 -0.35805,0.940337 -0.28227,1.016124 0.36936,0.36935 0.45091,-0.447561 0.65363,-0.979953 0.45049,-1.183095 z m 64.68574,-6.35843 c -2.25302,-4.244798 -9.05771,-12.038652 -12.71389,-14.562057 -1.1165,-0.770574 0.0277,0.507703 2.54274,2.840616 4.24102,3.933973 10.30097,12.099309 11.28832,15.210183 0.23341,0.735409 0.57429,1.187201 0.75751,1.003981 0.18322,-0.183219 -0.66038,-2.204944 -1.87468,-4.492723 z m -49.38306,-6.889806 c 0,-0.463018 -5.1511,2.299217 -5.57911,2.991753 -0.21466,0.347332 0.95282,-0.119171 2.59441,-1.036671 1.64159,-0.917502 2.9847,-1.797288 2.9847,-1.955082 z m 25.73196,2.725937 c 0,-0.400182 -3.72166,-2.335215 -4.42084,-2.298566 -0.29018,0.01521 0.51156,0.59658 1.78167,1.291932 2.60056,1.423746 2.63917,1.438475 2.63917,1.006634 z M 201.77038,54.182518 c 1.74484,-1.196288 5.01082,-3.048067 7.25773,-4.115065 2.24691,-1.066998 3.34302,-1.74915 2.43581,-1.515894 -3.79166,0.97488 -10.89279,5.354482 -14.77532,9.112638 -2.28788,2.214589 -2.79423,2.82657 -1.12522,1.359958 1.66901,-1.466612 4.46215,-3.645348 6.207,-4.841637 z m 48.62137,-1.045902 c 0,-0.168675 -0.66804,-0.630416 -1.48453,-1.026089 -1.42557,-0.69083 -1.43366,-0.678648 -0.20379,0.306683 1.34615,1.078491 1.68832,1.224294 1.68832,0.719406 z m -3.62886,-2.332492 c -0.22428,-0.362887 -0.76139,-0.655247 -1.19358,-0.649691 -0.47216,0.0061 -0.39078,0.265387 0.20389,0.649691 1.26754,0.81915 1.49595,0.81915 0.98969,0 z m -7.76632,-3.037801 c -0.21925,-0.219244 -0.78833,-0.242684 -1.26461,-0.05209 -0.52634,0.210624 -0.37,0.366966 0.39863,0.398626 0.69552,0.02865 1.08522,-0.127293 0.86598,-0.346536 z"
         id="path6498" />
    </g>
    <path
       style="fill:#000000;stroke:#000000;stroke-width:0.661113"
       d="m 308.45361,107.21649 v -7.587624 h 33.64948 33.64949 v 7.587624 7.58763 h -33.64949 -33.64948 z"
       id="path6540" />
    <path
       style="fill:#000000;stroke:#000000;stroke-width:0.661113"
       d="m 308.45361,107.21649 v -7.587624 h 33.64948 33.64949 v 7.587624 7.58763 h -33.64949 -33.64948 z"
       id="path6579" />
    <path
       style="fill:#000000;stroke:#000000;stroke-width:0.661113"
       d="m 308.45361,107.21649 v -7.587624 h 33.64948 33.64949 v 7.587624 7.58763 h -33.64949 -33.64948 z"
       id="path6618" />
    <path
       style="fill:#000000;stroke:#000000;stroke-width:0.661113"
       d="m 308.45361,107.21649 v -7.587624 h 33.64948 33.64949 v 7.587624 7.58763 h -33.64949 -33.64948 z"
       id="path6657" />
    <path
       style="fill:#000000;stroke:#000000;stroke-width:0.661113"
       d="m 308.45361,107.21649 v -7.587624 h 33.64948 33.64949 v 7.587624 7.58763 h -33.64949 -33.64948 z"
       id="path6696" />
    <path
       style="fill:#000000;stroke:#000000;stroke-width:0.661113"
       d="m 308.45361,107.21649 v -7.587624 h 33.64948 33.64949 v 7.587624 7.58763 h -33.64949 -33.64948 z"
       id="path6735" />
    <path
       style="fill:#000000;stroke:#000000;stroke-width:0.661113"
       d="m 306.47423,106.8866 v -9.896909 h 35.62886 35.62887 v 9.896909 9.89691 h -35.62887 -35.62886 z m 36.14397,-7.422824 34.12407,-0.176945 -34.47423,-0.158879 -34.47423,-0.15888 0.14267,8.412368 0.14266,8.41237 0.20749,-8.07654 0.2075,-8.07655 z"
       id="path6774" />
    <path
       style="fill:#000000;stroke:#000000;stroke-width:0.661113"
       d="m 308.45361,146.47423 v -7.25774 h 18.47423 18.47422 v 7.25774 7.25773 h -18.47422 -18.47423 z"
       id="path6813" />
    <path
       style="fill:#000000;stroke:#000000;stroke-width:0.661113"
       d="m 308.45361,146.47423 v -7.25774 h 18.47423 18.47422 v 7.25774 7.25773 h -18.47422 -18.47423 z"
       id="path6852" />
    <path
       style="fill:#000000;stroke:#000000;stroke-width:0.661113"
       d="m 308.45361,146.47423 v -7.25774 h 18.47423 18.47422 v 7.25774 7.25773 h -18.47422 -18.47423 z"
       id="path6891" />
    <path
       style="fill:#000000;stroke:#000000;stroke-width:0.661113"
       d="m 308.45361,146.47423 v -7.25774 h 18.47423 18.47422 v 7.25774 7.25773 h -18.47422 -18.47423 z"
       id="path6930" />
    <path
       style="fill:#000000;stroke:#000000;stroke-width:0.661113"
       d="m 308.45361,146.47423 v -7.25774 h 18.47423 18.47422 v 7.25774 7.25773 h -18.47422 -18.47423 z"
       id="path6969" />
    <path
       style="fill:#000000;stroke:#000000;stroke-width:0.661113"
       d="m 308.45361,146.47423 v -7.25774 h 18.47423 18.47422 v 7.25774 7.25773 h -18.47422 -18.47423 z"
       id="path7008" />
    <path
       style="fill:#000000;stroke:#000000;stroke-width:0.661113"
       d="m 306.91409,155.93127 c -0.24193,-0.24192 -0.43986,-4.69553 -0.43986,-9.89691 v -9.45704 h 20.7835 20.78351 v 9.89691 9.8969 h -20.34365 c -11.189,0 -20.54158,-0.19793 -20.7835,-0.43986 z m 1.36823,-13.58075 c -0.12883,-2.26805 -0.23425,-0.41238 -0.23425,4.12371 0,4.53608 0.10542,6.39175 0.23425,4.12371 0.12884,-2.26804 0.12884,-5.97938 0,-8.24742 z m 37.60825,0 c -0.12884,-2.26805 -0.23425,-0.41238 -0.23425,4.12371 0,4.53608 0.10541,6.39175 0.23425,4.12371 0.12884,-2.26804 0.12884,-5.97938 0,-8.24742 z"
       id="path7047" />
    <path
       style="fill:#000000;stroke:#000000;stroke-width:0.661113"
       d="m 306.91409,155.93127 c -0.24193,-0.24192 -0.43986,-4.69553 -0.43986,-9.89691 v -9.45704 h 20.7835 20.78351 v 9.89691 9.8969 h -20.34365 c -11.189,0 -20.54158,-0.19793 -20.7835,-0.43986 z"
       id="path7086" />
    <path
       style="fill:#000000;stroke:#000000;stroke-width:0.661113"
       d="m 308.45361,185.40206 v -7.25773 h 33.64948 33.64949 v 7.25773 7.25773 h -33.64949 -33.64948 z"
       id="path7125" />
    <path
       style="fill:#000000;stroke:#000000;stroke-width:0.661113"
       d="m 308.45361,185.40206 v -7.25773 h 33.64948 33.64949 v 7.25773 7.25773 h -33.64949 -33.64948 z"
       id="path7164" />
    <path
       style="fill:#000000;stroke:#000000;stroke-width:0.661113"
       d="m 308.45361,185.40206 v -7.25773 h 33.64948 33.64949 v 7.25773 7.25773 h -33.64949 -33.64948 z"
       id="path7203" />
    <path
       style="fill:#000000;stroke:#000000;stroke-width:0.661113"
       d="m 325.1134,192.82524 c 9.34433,-0.10325 24.63505,-0.10325 33.97938,0 9.34433,0.10325 1.69897,0.18773 -16.98969,0.18773 -18.68866,0 -26.33402,-0.0845 -16.98969,-0.18773 z"
       id="path7242" />
    <path
       style="fill:#000000;stroke:#000000;stroke-width:0.661113"
       d="m 306.62199,185.89691 0.18213,-10.06186 35.03482,-0.17068 35.03481,-0.17068 0.42911,6.04524 c 0.236,3.32488 0.4291,7.92952 0.4291,10.23253 v 4.1873 h -35.64605 -35.64605 z m 8.5945,6.93055 -6.76288,-0.21383 v -7.23465 -7.23465 h 33.64948 33.64949 v 7.23465 7.23465 l -6.76289,0.21383 -6.76289,0.21383 7.09279,0.13915 7.09278,0.13915 v -7.91753 -7.91752 h -34.30928 -34.30928 v 7.91752 7.91753 l 7.09279,-0.13915 7.09278,-0.13915 z"
       id="path7281" />
    <path
       style="fill:#000000;stroke:#000000;stroke-width:0.661113"
       d="m 308.45361,224.98969 v -7.91753 h 18.47423 18.47422 v 7.91753 7.91753 h -18.47422 -18.47423 z"
       id="path7320" />
    <path
       style="fill:#000000;stroke:#000000;stroke-width:0.661113"
       d="m 308.45361,224.98969 v -7.91753 h 18.47423 18.47422 v 7.91753 7.91753 h -18.47422 -18.47423 z"
       id="path7359" />
    <path
       style="fill:#000000;stroke:#000000;stroke-width:0.661113"
       d="m 306.47423,224.98969 v -9.89691 h 21.1134 21.1134 v 9.89691 9.89691 h -21.1134 -21.1134 z m 39.58763,0 v -8.57732 h -19.13402 -19.13403 v 8.57732 8.57732 h 19.13403 19.13402 z"
       id="path7435" />
    <path
       style="fill:#000000;stroke:#000000;stroke-width:0.661113"
       d="m 306.47423,224.98969 v -9.89691 h 21.1134 21.1134 v 9.89691 9.89691 h -21.1134 -21.1134 z m 39.58763,0 v -8.57732 h -19.13402 -19.13403 v 8.57732 8.57732 h 19.13403 19.13402 z"
       id="path7474" />
    <path
       style="fill:#000000;stroke:#000000;stroke-width:0.661113"
       d="m 308.45361,264.57732 v -7.25773 h 33.64948 33.64949 v 7.25773 7.25773 h -33.64949 -33.64948 z"
       id="path7513" />
    <path
       style="fill:#000000;stroke:#000000;stroke-width:0.661113"
       d="m 308.45361,264.57732 v -7.25773 h 33.64948 33.64949 v 7.25773 7.25773 h -33.64949 -33.64948 z"
       id="path7552" />
    <path
       style="fill:#000000;stroke:#000000;stroke-width:0.661113"
       d="m 308.45361,264.57732 v -7.25773 h 33.64948 33.64949 v 7.25773 7.25773 h -33.64949 -33.64948 z"
       id="path7591" />
    <path
       style="fill:#000000;stroke:#000000;stroke-width:0.661113"
       d="m 308.45361,264.57732 v -7.25773 h 33.64948 33.64949 v 7.25773 7.25773 h -33.64949 -33.64948 z"
       id="path7630" />
    <path
       style="fill:#000000;stroke:#000000;stroke-width:0.661113"
       d="m 308.45361,264.57732 v -7.25773 h 33.64948 33.64949 v 7.25773 7.25773 h -33.64949 -33.64948 z"
       id="path7743" />
    <path
       style="fill:#000000;stroke:#000000;stroke-width:0.661113"
       d="m 308.45361,264.57732 v -7.25773 h 33.64948 33.64949 v 7.25773 7.25773 h -33.64949 -33.64948 z"
       id="path7782" />
    <path
       style="fill:#000000;stroke:#000000;stroke-width:0.661113"
       d="m 306.47423,264.24742 v -10.2268 h 35.62886 35.62887 v 10.2268 10.22681 h -35.62887 -35.62886 z m 1.80809,-3.79381 c -0.12883,-2.26804 -0.23425,-0.41237 -0.23425,4.12371 0,4.53608 0.10542,6.39175 0.23425,4.12371 0.12884,-2.26804 0.12884,-5.97938 0,-8.24742 z"
       id="path7821" />
    <path
       style="fill:#d40000;stroke:#000000;stroke-width:1.32223"
       d="m 216.78248,431.46509 c -16.52881,-2.7847 -32.18884,-14.9813 -40.27552,-31.36805 -4.79621,-9.71898 -4.95942,-10.51288 -4.92593,-23.96114 0.0324,-13.00825 0.31682,-14.49078 4.39142,-22.89038 6.93002,-14.28591 19.30552,-24.95975 36.15126,-31.18038 l 3.62887,-1.34003 0.16495,-51.49657 c 0.0907,-28.32312 0.3134,-52.0904 0.49484,-52.81617 0.18144,-0.72577 0.40412,-22.69691 0.49485,-48.82474 l 0.16494,-47.50516 h 9.89691 9.89691 v 100.66037 100.66037 l 5.97638,1.76462 c 13.98104,4.1281 27.71468,16.41783 34.16597,30.57385 9.64915,21.17308 5.79972,43.45837 -10.44936,60.49383 -8.97296,9.40721 -19.69854,15.34204 -31.05695,17.18487 -9.45814,1.53453 -9.87073,1.53552 -18.71954,0.0447 z M 198.53924,385.5813 c 2.36815,-2.36814 4.04864,-5.807 4.67518,-9.56701 1.07931,-6.47716 4.68384,-14.40102 7.68337,-16.8904 1.06482,-0.88372 5.46933,-3.31832 9.7878,-5.41022 8.94504,-4.33304 11.77662,-8.84419 10.34416,-16.47986 -3.63895,-19.39727 -37.78046,-8.4255 -49.80828,16.00647 -3.70878,7.53361 -4.28549,10.08446 -4.33715,19.18373 -0.0574,10.10687 0.0867,10.61203 3.89919,13.668 5.65919,4.53625 12.91754,4.32748 17.75573,-0.51071 z"
       id="path9067" />
    <path
       style="fill:#d40000;stroke:#000000;stroke-width:1.32223"
       d=""
       id="path9145" />
  </g>
</svg>
