<?xml version="1.0" encoding="UTF-8" standalone="no"?>
<svg
   width="55mm"
   height="55mm"
   viewBox="0 0 55 55"
   version="1.1"
   id="svg5"
   inkscape:version="1.1.2 (0a00cf5339, 2022-02-04)"
   sodipodi:docname="rainfall-station.svg"
   xmlns:inkscape="http://www.inkscape.org/namespaces/inkscape"
   xmlns:sodipodi="http://sodipodi.sourceforge.net/DTD/sodipodi-0.dtd"
   xmlns="http://www.w3.org/2000/svg"
   xmlns:svg="http://www.w3.org/2000/svg">
  <sodipodi:namedview
     id="namedview7"
     pagecolor="#ffffff"
     bordercolor="#666666"
     borderopacity="1.0"
     inkscape:pageshadow="2"
     inkscape:pageopacity="0.0"
     inkscape:pagecheckerboard="0"
     inkscape:document-units="mm"
     showgrid="false"
     inkscape:zoom="2.6396511"
     inkscape:cx="31.443549"
     inkscape:cy="111.37836"
     inkscape:window-width="1920"
     inkscape:window-height="1011"
     inkscape:window-x="0"
     inkscape:window-y="0"
     inkscape:window-maximized="1"
     inkscape:current-layer="layer1" />
  <defs
     id="defs2" />
  <g
     inkscape:label="Layer 1"
     inkscape:groupmode="layer"
     id="layer1">
    <g
       id="g3891"
       transform="translate(0.14618203,0.16500884)">
      <path
         style="fill:#e6e6e6;fill-opacity:1;stroke-width:0.107337"
         d="m 13.305781,33.848732 c 1.756308,-0.01655 4.630266,-0.01655 6.386573,0 1.756308,0.01655 0.319329,0.03009 -3.193286,0.03009 -3.512616,0 -4.949595,-0.01354 -3.193287,-0.03009 z m 22.817088,-2.8e-5 c 2.144382,-0.01626 5.622112,-0.01625 7.728291,1.8e-5 2.106178,0.01627 0.351683,0.02957 -3.898877,0.02956 -4.25056,-1.1e-5 -5.973796,-0.01332 -3.829414,-0.02958 z"
         id="path3911" />
      <path
         style="fill:#dadada;fill-opacity:1;stroke-width:0.107337"
         d="m 3.0682048,30.843223 c -0.1335139,-0.170243 -0.1297174,-0.17404 0.040526,-0.04053 0.1033123,0.08102 0.1878404,0.165552 0.1878404,0.18784 0,0.08834 -0.088144,0.03148 -0.2283661,-0.147314 z"
         id="path3909" />
      <path
         style="fill:#cecece;fill-opacity:1;stroke-width:0.107337"
         d="m 16.177055,6.719149 c 0.138654,-0.1475889 0.276247,-0.2683434 0.305765,-0.2683434 0.02952,0 -0.05977,0.1207545 -0.198427,0.2683434 -0.138653,0.1475889 -0.276247,0.2683435 -0.305765,0.2683435 -0.02952,0 0.05977,-0.1207546 0.198427,-0.2683435 z"
         id="path3907" />
      <path
         style="fill:#c2c2c2;fill-opacity:1;stroke-width:0.107337"
         d="m 51.212509,22.202565 -0.204477,-0.241509 0.241509,0.204476 c 0.13283,0.112462 0.24151,0.221141 0.24151,0.241509 0,0.0859 -0.08638,0.02248 -0.278542,-0.204476 z M 39.777585,5.4042662 c -0.133514,-0.170243 -0.129717,-0.1740396 0.04053,-0.040526 0.178798,0.1402222 0.235657,0.2283661 0.147315,0.2283661 -0.02229,0 -0.106817,-0.084528 -0.187841,-0.1878404 z M 14.35232,5.4511824 c 0,-0.018473 0.156981,-0.1754536 0.348847,-0.3488464 L 15.050013,4.7870764 14.734754,5.1359228 C 14.440887,5.4610965 14.35232,5.5341071 14.35232,5.4511824 Z M 39.298061,4.9212481 39.093584,4.679739 39.335093,4.8842154 c 0.13283,0.112462 0.241509,0.2211411 0.241509,0.2415091 0,0.085897 -0.08638,0.022483 -0.278541,-0.2044764 z"
         id="path3905" />
      <path
         style="fill:#aaaaaa;fill-opacity:1;stroke-width:0.107337"
         d="m 14.932456,52.230194 c 1.07e-4,-0.944568 0.01656,-1.316614 0.03649,-0.826768 0.01993,0.489847 0.01982,1.262676 -2.15e-4,1.717398 -0.02007,0.454723 -0.03638,0.05394 -0.03624,-0.89063 z m 23.18861,-1.288048 c 5.3e-5,-1.652996 0.01495,-2.314223 0.03311,-1.469395 0.01816,0.844829 0.01811,2.19728 -9.9e-5,3.005446 -0.01821,0.808168 -0.03307,0.116944 -0.03301,-1.536051 z m -7.737973,-0.483018 c 0,-0.501802 0.01849,-0.707085 0.04109,-0.456184 0.0226,0.250901 0.0226,0.661466 0,0.912368 -0.0226,0.250901 -0.04109,0.04562 -0.04109,-0.456184 z M 22.661442,46.27297 c 0,-1.033122 0.0161,-1.455763 0.03578,-0.939202 0.01968,0.516561 0.01968,1.361843 0,1.878404 -0.01968,0.516561 -0.03578,0.09392 -0.03578,-0.939202 z m -7.723628,-4.561838 c 3e-5,-2.302387 0.01424,-3.228998 0.03158,-2.059137 0.01734,1.169862 0.01732,3.053633 -5.4e-5,4.186158 -0.01737,1.132525 -0.03156,0.175366 -0.03153,-2.127021 z m 15.456029,-0.483018 c 0,-2.036727 0.01443,-2.869933 0.03208,-1.85157 0.01764,1.018363 0.01764,2.684776 0,3.703139 -0.01764,1.018364 -0.03208,0.185157 -0.03208,-1.851569 z M 7.208001,40.58409 c 0,-1.682514 0.014838,-2.370815 0.032973,-1.529558 0.018136,0.841257 0.018136,2.217859 0,3.059115 -0.018135,0.841257 -0.032973,0.152956 -0.032973,-1.529557 z m 38.641453,0 c 0,-1.682514 0.01484,-2.370815 0.03297,-1.529558 0.01814,0.841257 0.01814,2.217859 0,3.059115 -0.01814,0.841257 -0.03297,0.152956 -0.03297,-1.529557 z m -7.728696,-0.214675 c 0,-1.564442 0.015,-2.204441 0.03334,-1.42222 0.01834,0.782221 0.01834,2.062219 0,2.84444 -0.01834,0.782221 -0.03334,0.142222 -0.03334,-1.42222 z m -15.46375,-1.717398 c 0,-0.619873 0.01774,-0.873458 0.03942,-0.563521 0.02168,0.309936 0.02168,0.817105 0,1.127042 -0.02168,0.309937 -0.03942,0.05635 -0.03942,-0.563521 z M 10.247917,15.283892 c 0.133519,-0.02567 0.326726,-0.0247 0.42935,0.0022 0.102624,0.02687 -0.0066,0.04787 -0.242761,0.04668 -0.236142,-0.0012 -0.320107,-0.02317 -0.186589,-0.04885 z m 32.951322,-2.356594 c 0.07379,-0.02978 0.194549,-0.02978 0.268343,0 0.07379,0.02978 0.01342,0.05414 -0.134172,0.05414 -0.147589,0 -0.207966,-0.02436 -0.134171,-0.05414 z"
         id="path3903" />
      <path
         style="fill:#929292;fill-opacity:1;stroke-width:0.107337"
         d="m 3.1892336,16.070643 c 0,-0.02229 0.084528,-0.106817 0.1878404,-0.187841 0.170243,-0.133513 0.1740396,-0.129717 0.040526,0.04053 -0.1402222,0.178797 -0.2283661,0.235657 -0.2283661,0.147314 z m 43.9946304,-1.5427 c -0.133514,-0.170244 -0.129717,-0.17404 0.04053,-0.04053 0.103312,0.08102 0.18784,0.165552 0.18784,0.187841 0,0.08834 -0.08814,0.03148 -0.228366,-0.147314 z M 9.8240248,13.139737 c 0.077484,-0.03101 0.1700627,-0.02719 0.2057302,0.0085 0.03567,0.03567 -0.02773,0.06104 -0.1408805,0.05637 -0.1250419,-0.0052 -0.1504763,-0.03058 -0.06485,-0.06485 z M 42.883935,12.925062 c 0.07748,-0.03101 0.170063,-0.02719 0.20573,0.0085 0.03567,0.03567 -0.02773,0.06104 -0.14088,0.05638 -0.125043,-0.0052 -0.150476,-0.03059 -0.06485,-0.06485 z m 0.751362,0 c 0.07748,-0.03101 0.170063,-0.02719 0.20573,0.0085 0.03567,0.03567 -0.02773,0.06104 -0.14088,0.05638 -0.125043,-0.0052 -0.150477,-0.03059 -0.06485,-0.06485 z M 25.709956,0.04457704 c 0.07748,-0.03100661 0.170062,-0.02719331 0.20573,0.008474 0.03567,0.03566731 -0.02773,0.06103636 -0.14088,0.05637566 -0.125043,-0.00515 -0.150477,-0.03058474 -0.06485,-0.06484966 z"
         id="path3901" />
      <path
         style="fill:#6e6e6e;fill-opacity:1;stroke-width:0.107337"
         d="m 42.561923,12.925062 c 0.07748,-0.03101 0.170063,-0.02719 0.20573,0.0085 0.03567,0.03567 -0.02773,0.06104 -0.14088,0.05638 -0.125043,-0.0052 -0.150476,-0.03059 -0.06485,-0.06485 z"
         id="path3899" />
      <path
         style="fill:#575757;fill-opacity:1;stroke-width:0.107337"
         d="m 17.079204,52.230194 c 1.07e-4,-0.944568 0.01656,-1.316614 0.03649,-0.826768 0.01994,0.489847 0.01982,1.262676 -2.15e-4,1.717398 -0.02007,0.454723 -0.03638,0.05394 -0.03624,-0.89063 z m 23.188707,-1.341717 c 0,-1.682513 0.01484,-2.370814 0.03297,-1.529557 0.01814,0.841256 0.01814,2.217858 0,3.059115 -0.01814,0.841256 -0.03297,0.152956 -0.03297,-1.529558 z m -7.73807,-0.429349 c 0,-0.501802 0.01849,-0.707085 0.04109,-0.456184 0.0226,0.250901 0.0226,0.661466 0,0.912368 -0.0226,0.250901 -0.04109,0.04562 -0.04109,-0.456184 z M 24.80819,46.27297 c 0,-1.033122 0.0161,-1.455763 0.03578,-0.939202 0.01968,0.516561 0.01968,1.361843 0,1.878404 -0.01968,0.516561 -0.03578,0.09392 -0.03578,-0.939202 z m -7.723628,-4.561838 c 3e-5,-2.302387 0.01424,-3.228998 0.03159,-2.059137 0.01734,1.169862 0.01732,3.053633 -5.5e-5,4.186158 -0.01737,1.132525 -0.03156,0.175366 -0.03153,-2.127021 z M 32.54059,41.228114 c 0,-2.036727 0.01443,-2.869933 0.03208,-1.85157 0.01764,1.018363 0.01764,2.684776 0,3.703139 -0.01764,1.018364 -0.03208,0.185157 -0.03208,-1.851569 z M 9.3547484,40.58409 c 0,-1.682514 0.014838,-2.370815 0.032973,-1.529558 0.018135,0.841257 0.018135,2.217859 0,3.059115 -0.018135,0.841257 -0.032973,0.152956 -0.032973,-1.529557 z m 38.6414536,0 c 0,-1.682514 0.01484,-2.370815 0.03297,-1.529558 0.01814,0.841257 0.01814,2.217859 0,3.059115 -0.01814,0.841257 -0.03297,0.152956 -0.03297,-1.529557 z m -7.728697,-0.214675 c 0,-1.564442 0.01501,-2.204441 0.03335,-1.42222 0.01834,0.782221 0.01834,2.062219 0,2.84444 -0.01834,0.782221 -0.03335,0.142222 -0.03335,-1.42222 z M 24.803756,38.652017 c 0,-0.619873 0.01774,-0.873458 0.03942,-0.563521 0.02168,0.309936 0.02168,0.817105 0,1.127042 -0.02168,0.309937 -0.03942,0.05635 -0.03942,-0.563521 z M 4.477282,17.788041 c 0,-0.02229 0.084528,-0.106817 0.1878404,-0.187841 0.1702431,-0.133513 0.1740396,-0.129717 0.040526,0.04053 C 4.565426,17.819524 4.477282,17.876384 4.477282,17.788041 Z"
         id="path3897" />
      <path
         style="fill:#4b4b4b;fill-opacity:1;stroke-width:0.107337"
         d="m 50.962838,18.73199 c 0.0052,-0.125043 0.03059,-0.150476 0.06485,-0.06485 0.03101,0.07748 0.02719,0.170062 -0.0085,0.20573 -0.03567,0.03567 -0.06104,-0.02773 -0.05638,-0.14088 z m 0,-0.536687 c 0.0052,-0.125042 0.03059,-0.150476 0.06485,-0.06485 0.03101,0.07748 0.02719,0.170062 -0.0085,0.205731 -0.03567,0.03567 -0.06104,-0.02773 -0.05638,-0.140881 z m -2.270683,-5.170083 -0.26022,-0.295178 0.295178,0.260219 c 0.162348,0.143121 0.295178,0.275951 0.295178,0.295178 0,0.08418 -0.08692,0.01567 -0.330136,-0.260219 z"
         id="path3895" />
      <path
         style="fill:#333333;fill-opacity:1;stroke-width:0.107337"
         d="m 15.574135,54.797351 c -0.520817,-0.256935 -0.577791,-0.511099 -0.577791,-2.577537 0,-2.148204 0.0708,-2.412494 0.702139,-2.620853 0.29856,-0.09853 0.454964,-0.09723 0.703835,0.0058 0.599539,0.248337 0.633436,0.387613 0.633436,2.602651 0,1.243572 -0.04467,2.106049 -0.115977,2.239289 -0.102378,0.191294 -0.69906,0.524739 -0.927114,0.518099 -0.04617,-0.0013 -0.234511,-0.07672 -0.418528,-0.167502 z m 23.184872,0 c -0.184017,-0.09078 -0.3893,-0.285162 -0.456184,-0.431955 -0.08207,-0.180135 -0.121606,-1.328952 -0.121606,-3.533945 v -3.267046 l 0.295177,-0.318039 c 0.425247,-0.458183 1.060229,-0.486446 1.480768,-0.06591 l 0.263465,0.263464 v 3.393063 c 0,2.225287 -0.03992,3.467645 -0.115977,3.609768 -0.102379,0.191295 -0.699061,0.524739 -0.927115,0.518099 -0.04617,-0.0013 -0.234511,-0.07672 -0.418528,-0.167502 z m -7.767279,-2.54402 c -0.427424,-0.216266 -0.535498,-0.570797 -0.53722,-1.762319 -0.0018,-1.26256 0.100385,-1.564002 0.612743,-1.807131 0.441748,-0.209623 0.806284,-0.141361 1.165985,0.218341 0.24541,0.245409 0.2591,0.32785 0.2591,1.560284 0,1.295034 -0.0015,1.302666 -0.313756,1.614939 -0.342615,0.342615 -0.740728,0.401614 -1.186852,0.175886 z m -7.689302,-3.252198 c -0.526918,-0.259946 -0.577791,-0.501064 -0.577791,-2.738543 0,-2.261228 0.06395,-2.540117 0.636879,-2.777432 0.402858,-0.166869 0.804799,-0.07376 1.143432,0.26487 0.257147,0.257147 0.259099,0.275774 0.259099,2.471451 0,1.312099 -0.04497,2.296384 -0.110519,2.418859 -0.116213,0.217144 -0.639657,0.532455 -0.877021,0.528297 -0.07673,-0.0013 -0.290062,-0.07672 -0.474079,-0.167502 z m -7.767279,-2.222008 c -0.525905,-0.266095 -0.535529,-0.358474 -0.53722,-5.156752 l -0.0016,-4.489593 0.313756,-0.313755 c 0.411245,-0.411246 0.933349,-0.424667 1.395406,-0.03587 l 0.330248,0.277886 v 4.614222 4.614222 l -0.313755,0.313755 c -0.342616,0.342615 -0.740728,0.401614 -1.186852,0.175886 z M 30.991728,45.813089 C 30.470922,45.549573 30.4562,45.421492 30.454508,41.139354 l -0.0016,-4.006574 0.313756,-0.313755 c 0.411244,-0.411246 0.933348,-0.424667 1.395406,-0.03587 l 0.330248,0.277886 v 4.131204 4.131204 l -0.313756,0.313754 c -0.342615,0.342616 -0.740728,0.401615 -1.186852,0.175887 z M 7.8165552,44.518454 C 7.2935851,44.217719 7.2759202,44.087247 7.2718572,40.49533 l -0.0038,-3.36255 0.3137554,-0.313755 c 0.4112454,-0.411246 0.933349,-0.424667 1.395407,-0.03587 l 0.3302476,0.277886 v 3.472937 c 0,3.447651 -0.00176,3.474962 -0.2415091,3.75089 -0.2900608,0.333832 -0.8824729,0.444588 -1.2493994,0.233587 z m 38.6414538,0 c -0.52297,-0.300735 -0.540635,-0.431207 -0.544698,-4.023124 l -0.0038,-3.36255 0.313756,-0.313755 c 0.411245,-0.411246 0.933349,-0.424667 1.395406,-0.03587 l 0.330248,0.277886 v 3.472937 c 0,3.447651 -0.0018,3.474962 -0.241509,3.75089 -0.290061,0.333832 -0.882473,0.444588 -1.249399,0.233587 z M 38.494972,43.919805 38.181217,43.60605 V 40.369415 37.13278 l 0.313755,-0.313755 c 0.411245,-0.411246 0.933349,-0.424667 1.395406,-0.03587 l 0.330249,0.277886 v 3.308375 3.308375 l -0.330249,0.277886 c -0.462057,0.388796 -0.984161,0.375374 -1.395406,-0.03587 z M 23.229543,40.632747 c -0.433194,-0.242536 -0.504908,-0.54128 -0.504908,-2.103311 V 37.13278 l 0.313756,-0.313755 c 0.411245,-0.411246 0.933349,-0.424667 1.395406,-0.03587 l 0.330248,0.277886 v 1.540864 c 0,1.44402 -0.01518,1.558335 -0.241509,1.818818 -0.302725,0.348405 -0.880254,0.443108 -1.292993,0.212024 z M 8.9317829,33.705797 C 7.9507321,33.568913 6.3026979,32.997071 5.3895856,32.476711 1.7743258,30.416467 -0.29461649,26.399276 0.18580992,22.372728 0.6364321,18.595974 3.0290714,15.40089 6.4836154,13.962759 7.3778661,13.590482 8.9786462,13.216772 9.6889004,13.21447 l 0.4351056,-0.0014 0.297288,-0.939202 c 1.420797,-4.4886192 4.626114,-8.2446974 8.814877,-10.3295111 4.36857,-2.17430715 9.151632,-2.48705177 13.719548,-0.8970645 4.26187,1.4834597 7.917183,4.7292497 9.906061,8.796236 l 0.478087,0.9776216 0.774967,0.05871 c 2.76324,0.209322 5.502674,2.335452 6.417337,4.980624 0.341861,0.988648 0.432774,1.514673 0.437607,2.532032 l 0.0045,0.948672 0.446221,0.280766 c 2.488069,1.565512 3.899837,4.556393 3.506553,7.428765 -0.242214,1.769035 -0.965747,3.244313 -2.193193,4.471905 -1.196506,1.196647 -2.598522,1.916733 -4.25528,2.185541 -0.434471,0.07049 -3.606617,0.112363 -8.551445,0.112874 l -7.86077,8.1e-4 -0.348101,-0.311027 c -0.283334,-0.253159 -0.3481,-0.39136 -0.3481,-0.742789 0,-0.522204 0.25062,-0.834728 0.789408,-0.984393 0.241313,-0.06703 3.331659,-0.107566 8.229405,-0.107939 8.608758,-6.44e-4 8.325255,0.01878 9.605102,-0.658584 1.085905,-0.574719 2.108687,-1.761045 2.587392,-3.00112 0.284766,-0.737681 0.385339,-2.313214 0.198945,-3.11657 -0.369338,-1.591831 -1.479557,-3.000395 -2.979041,-3.779586 -0.427515,-0.222153 -0.828505,-0.499593 -0.891089,-0.616532 -0.07321,-0.13679 -0.0887,-0.622955 -0.04343,-1.36317 0.119806,-1.959143 -0.368023,-3.335865 -1.630871,-4.602552 -1.095589,-1.098919 -2.497505,-1.646525 -4.21524,-1.646525 -0.763151,0 -0.864294,-0.02552 -1.12176,-0.28298 -0.155639,-0.155639 -0.28298,-0.331183 -0.28298,-0.390096 0,-0.171821 -0.945715,-2.119793 -1.314358,-2.7072985 C 38.073589,5.9598094 34.500963,3.4313961 30.345588,2.4645841 28.881895,2.1240332 26.229519,2.0736257 24.603039,2.3554488 21.327371,2.92303 18.600332,4.3426798 16.227294,6.715718 c -1.691895,1.6918939 -2.885986,3.540498 -3.63687,5.630334 -0.305558,0.85042 -0.299375,1.081683 0.02892,1.081683 0.344352,0 1.851606,0.538379 2.591677,0.925729 1.095367,0.573307 2.139544,1.392235 2.317142,1.817289 0.273479,0.654525 -0.09794,1.28557 -0.825861,1.403127 -0.315849,0.05101 -0.464059,-0.01557 -1.1156,-0.501171 -0.890975,-0.66405 -2.197953,-1.313634 -3.166453,-1.573768 -0.954157,-0.256282 -3.0173245,-0.256282 -3.9714823,0 -2.7926557,0.750092 -4.936215,2.761438 -5.8573583,5.496078 -0.3911171,1.161128 -0.4813563,2.96548 -0.2099488,4.197976 0.5219638,2.370303 2.1286873,4.469909 4.2668671,5.575782 1.7734486,0.917233 1.6611888,0.906228 9.2507223,0.90691 4.34674,4.29e-4 15.44809,0.150754 16.234272,0.12216 0.863867,-0.03142 0.786928,2.020598 -0.08727,2.020898 l -9.002787,0.0031 -6.733728,-0.01309 c -3.703549,-0.0072 -7.0235368,-0.05353 -7.3777501,-0.10295 z"
         id="path3893"
         sodipodi:nodetypes="csscsscccssscsscsscssscssscssssssscscccsscccscccccsscccsccsscsscsssssscsscscssccccsscccsscsscsscsssssssccsssscssscssssscssscssssscsssscsssssssssssssscsscsss" />
    </g>
  </g>
</svg>
