<?xml version="1.0" encoding="UTF-8" standalone="no"?>
<!-- Created with Inkscape (http://www.inkscape.org/) -->

<svg
   version="1.1"
   id="svg868"
   width="427.40869"
   height="427.40869"
   viewBox="0 0 427.40869 427.40869"
   sodipodi:docname="river_basin.png.svg"
   inkscape:version="1.1.2 (0a00cf5339, 2022-02-04)"
   xmlns:inkscape="http://www.inkscape.org/namespaces/inkscape"
   xmlns:sodipodi="http://sodipodi.sourceforge.net/DTD/sodipodi-0.dtd"
   xmlns="http://www.w3.org/2000/svg"
   xmlns:svg="http://www.w3.org/2000/svg">
  <defs
     id="defs872" />
  <sodipodi:namedview
     id="namedview870"
     pagecolor="#ffffff"
     bordercolor="#666666"
     borderopacity="1.0"
     inkscape:pageshadow="2"
     inkscape:pageopacity="0.0"
     inkscape:pagecheckerboard="0"
     showgrid="false"
     inkscape:zoom="0.93119304"
     inkscape:cx="-105.24134"
     inkscape:cy="414.522"
     inkscape:window-width="1920"
     inkscape:window-height="1011"
     inkscape:window-x="0"
     inkscape:window-y="0"
     inkscape:window-maximized="1"
     inkscape:current-layer="g874" />
  <g
     inkscape:groupmode="layer"
     inkscape:label="Image"
     id="g874">
    <path
       style="fill:#000000;stroke-width:0.834783"
       d="M 100.94966,423.99967 C 93.250109,418.18314 80.724429,406.00768 74.508977,398.29827 61.279071,381.8884 50.572689,360.24373 48.082148,344.87218 c -4.745957,-29.2919 10.460311,-63.85503 45.541234,-103.51304 19.153148,-21.65211 43.936648,-44.71638 92.975768,-86.52602 40.97412,-34.93361 54.69449,-48.28543 60.63825,-59.009378 2.22134,-4.007831 2.38776,-4.948047 2.38776,-13.490686 0,-8.90023 -0.0897,-9.349469 -2.91743,-14.608695 C 242.99788,60.82443 234.18008,51.942561 224.96546,45.824132 209.70682,35.692518 183.8967,25.03779 159.88604,18.958574 145.50273,15.316888 143.38119,14.545037 142.3237,12.569098 140.13088,8.4717646 141.59595,1.1819091 146.30166,1.1819091 c 3.51351,0 20.77319,6.1041015 32.36699,9.8126229 56.63227,18.115026 86.80947,44.588107 84.41006,74.049063 -1.62483,19.950405 -10.77003,30.515735 -70.63615,81.605025 -56.40821,48.13833 -79.95774,70.71529 -99.784387,95.66342 -23.839132,29.9971 -35.114355,57.59202 -32.172952,78.73992 3.188468,22.92424 22.329179,52.46754 45.974729,70.96107 7.72374,6.04084 210.12296,-4.55609 214.01792,14.6483 0.60963,3.00585 -208.80868,1.68911 -211.91905,1.68911 -1.01743,0 -4.44156,-1.95785 -7.60916,-4.35077 z m 221.27432,3.18623 c -54.08146,-5.37032 -84.96366,-26.99226 -104.41658,-50.44444 -5.48968,-6.61828 -11.24096,-18.16593 -13.37787,-26.86058 -2.13855,-8.70131 -2.15283,-28.51661 -0.0276,-38.38002 5.60751,-26.02586 18.42936,-52.86463 42.28296,-88.50694 10.33377,-15.44081 19.37405,-27.96559 44.28668,-61.35652 23.61805,-31.65579 37.77032,-52.70614 44.19786,-65.740688 10.23908,-20.764172 9.81343,-28.327814 -2.30035,-40.875958 -12.62582,-13.078515 -41.13576,-16.964947 -73.22653,-37.869843 -10.23953,-6.670342 -99.75651,1.807663 -113.8073,-16.4209337 -1.6658,-2.1611095 98.36173,-2.3502526 103.99195,0.21177494 1.86036,0.84655686 23.21198,7.15460436 35.69361,12.06410076 13.93661,5.481796 32.07206,14.534833 41.39542,20.664179 11.19812,7.361851 20.58166,16.977724 24.48323,25.089417 4.09705,8.518114 4.71643,15.095065 2.31565,24.588878 -4.51135,17.839933 -14.85375,35.065603 -47.13234,78.500643 -47.26514,63.6014 -60.51951,83.3121 -73.53574,109.35577 -12.67173,25.35436 -17.48817,42.08047 -17.48729,60.72831 7.9e-4,16.45478 4.0658,27.7792 13.77519,38.37528 19.09287,20.83652 58.98088,34.97548 108.35979,38.40992 10.04563,0.69869 10.60691,0.87559 12.13122,3.82328 1.52268,2.94453 -7.19097,12.03709 -9.63323,13.74772 -1.68868,1.1828 -9.90343,1.69754 -17.96873,0.89665 z m 14.18958,-66.42016 c -4.08887,-1.63865 -4.11877,-1.84831 -4.56232,-31.98831 l -0.41739,-28.36283 -9.6,11.9822 c -14.11862,17.6221 -14.76667,18.28408 -17.89945,18.28408 -3.25638,0 -6.30924,-2.92357 -6.30924,-6.04204 0,-2.52066 1.21506,-4.1813 20.19367,-27.59908 l 14.07148,-17.36286 -0.22823,-14.19569 -0.22823,-14.1957 -9.59914,11.94116 c -14.18388,17.6445 -14.73663,18.20203 -18.04582,18.20203 -5.39565,0 -7.89677,-5.36324 -4.69736,-10.07271 0.80045,-1.17825 8.50774,-10.84715 17.12729,-21.48643 l 15.67193,-19.34416 -0.22845,-14.15372 -0.22845,-14.15373 -11.26956,14.08631 c -6.19826,7.74747 -12.37621,14.64703 -13.72877,15.33234 -4.77158,2.41767 -9.91696,-1.85252 -8.51249,-7.06458 0.83737,-3.1075 35.3707,-45.21935 38.23618,-46.62729 4.41863,-2.17109 4.40364,-2.18618 32.24929,32.47908 6.06395,7.54904 11.02535,14.38702 11.02535,15.1955 0,2.74389 -1.89127,5.6364 -4.21503,6.44647 -3.89626,1.35824 -6.79286,-1.11851 -18.74575,-16.02859 l -11.2653,-14.05239 v 14.37839 14.3784 l 17.11304,21.24346 c 11.02933,13.69138 17.11304,21.91911 17.11304,23.14402 0,3.20583 -3.07298,6.29963 -6.25724,6.29963 -3.47072,0 -4.49055,-1.00872 -17.53406,-17.34311 l -10.01739,-12.54478 -0.2288,14.19976 -0.2288,14.19975 6.54741,8.04854 c 22.91511,28.16888 27.71888,34.46251 27.71888,36.31575 0,3.25253 -3.04479,6.37627 -6.21514,6.37627 -3.24567,0 -4.64384,-1.40689 -18.41094,-18.52579 l -9.18261,-11.41824 -0.41739,28.30659 c -0.39699,26.92289 -0.49901,28.38502 -2.08696,29.91086 -2.11239,2.02977 -4.53192,2.68322 -6.70725,1.81144 z M 122.61452,167.84354 c -4.05555,-1.50024 -4.46761,-3.3679 -4.46761,-20.24924 v -15.75856 l -5.60009,6.97039 c -3.08005,3.83372 -6.17918,7.42802 -6.88696,7.98733 -2.02298,1.59863 -6.504908,1.27807 -8.382518,-0.59954 -3.478314,-3.47831 -2.453635,-5.68256 9.599468,-20.64984 l 11.26903,-13.99364 5.3e-4,-5.63478 c 3e-4,-3.09913 -0.14733,-5.63478 -0.32806,-5.63478 -0.18072,0 -2.89728,3.18351 -6.03681,7.07446 -3.13953,3.89095 -6.67911,7.47661 -7.86574,7.96813 -2.65083,1.09801 -6.148225,-0.0451 -7.422446,-2.42601 -2.002084,-3.74093 -1.026156,-5.60077 10.384026,-19.788988 l 11.26957,-14.013358 v -5.685377 c 0,-3.126957 -0.15455,-5.685376 -0.34346,-5.685376 -0.1889,0 -3.01777,3.353544 -6.28638,7.452319 -4.3016,5.394126 -6.614,7.599713 -8.3728,7.986008 -4.161167,0.913947 -7.536493,-2.017869 -7.536493,-6.54622 0,-1.426362 3.962688,-6.958132 12.746763,-17.794009 11.27493,-13.908573 13.05731,-15.754327 15.43631,-15.985236 1.47925,-0.143579 3.39501,0.233069 4.25723,0.836994 1.99668,1.398526 24.25666,28.861866 25.38341,31.316877 2.01941,4.399962 -3.6677,9.955408 -8.11636,7.928463 -1.08566,-0.494663 -4.48866,-4.022031 -7.56222,-7.838596 -3.07355,-3.816565 -5.92487,-7.064426 -6.33627,-7.217469 -0.4114,-0.153045 -0.74799,2.168796 -0.74799,5.159644 v 5.437906 l 10.22608,12.598706 c 12.66283,15.600802 13.8289,17.497122 12.52243,20.364532 -1.38791,3.04612 -4.57524,4.91062 -7.24792,4.23982 -1.39646,-0.35049 -4.38038,-3.19952 -8.12722,-7.75983 -3.25633,-3.9633 -6.24748,-7.33122 -6.64699,-7.48426 -0.39951,-0.15305 -0.72638,2.15564 -0.72638,5.13043 v 5.40869 l 11.27258,13.93627 c 6.19992,7.66494 11.50046,14.84421 11.77898,15.95391 0.60898,2.42638 -1.48973,5.97711 -4.1046,6.94441 -3.36508,1.24482 -6.24681,-0.72664 -12.46519,-8.52775 l -6.06438,-7.60792 -0.41739,16.65924 c -0.22957,9.16258 -0.69844,17.09182 -1.04194,17.62052 -0.98945,1.5229 -5.05802,2.62863 -7.01219,1.90573 z"
       id="path976"
       sodipodi:nodetypes="sssssssssssssssssssssssscssssssssssssssssssssscsssscccsssscccsssssssscccsssscccsssscssssscsssscsssssscssssssssssssscsssssscsssscsss" />
  </g>
</svg>
