<?xml version="1.0" encoding="UTF-8" standalone="no"?>
<!-- Created with Inkscape (http://www.inkscape.org/) -->

<svg
   version="1.1"
   id="svg952"
   width="622.17725"
   height="622.17725"
   viewBox="0 0 622.17725 622.17725"
   sodipodi:docname="tidal_station.svg"
   inkscape:version="1.1.2 (0a00cf5339, 2022-02-04)"
   xmlns:inkscape="http://www.inkscape.org/namespaces/inkscape"
   xmlns:sodipodi="http://sodipodi.sourceforge.net/DTD/sodipodi-0.dtd"
   xmlns="http://www.w3.org/2000/svg"
   xmlns:svg="http://www.w3.org/2000/svg">
  <defs
     id="defs956" />
  <sodipodi:namedview
     id="namedview954"
     pagecolor="#ffffff"
     bordercolor="#666666"
     borderopacity="1.0"
     inkscape:pageshadow="2"
     inkscape:pageopacity="0.0"
     inkscape:pagecheckerboard="0"
     showgrid="false"
     inkscape:zoom="1.2793782"
     inkscape:cx="311.08862"
     inkscape:cy="311.08862"
     inkscape:window-width="1920"
     inkscape:window-height="1011"
     inkscape:window-x="0"
     inkscape:window-y="0"
     inkscape:window-maximized="1"
     inkscape:current-layer="g958" />
  <g
     inkscape:groupmode="layer"
     inkscape:label="Image"
     id="g958">
    <path
       style="fill:#000000;stroke-width:1.21519"
       d="M 0.38776209,326.14173 V 90.227568 l 6.66641301,0.7835 c 14.9333449,1.75512 27.4382489,8.3858 41.1903289,21.841022 28.095473,27.48898 50.446137,73.40595 80.833996,166.06454 8.00046,24.39494 21.98111,67.0481 31.06813,94.78481 23.06502,70.40241 39.44142,110.2995 58.25777,141.93086 8.93797,15.02521 24.62516,35.30844 32.5622,42.10225 l 5.04852,4.32133 H 128.20144 0.38776209 Z M 191.09932,399.528 c -127.399547,-266.352 -63.69977,-133.176 0,0 z M 138.90036,240.33435 c -4.19227,-11.8633 -7.87934,-22.26336 -8.19349,-23.11128 -0.45138,-1.21825 0.15888,-1.25139 2.90928,-0.15795 6.11822,2.43235 19.78381,1.88314 26.31875,-1.05773 9.45671,-4.25573 12.32256,-6.91012 23.25758,-21.54153 11.09794,-14.84941 14.66007,-17.62519 22.61824,-17.62519 6.85375,0 10.49384,2.88106 20.45082,16.18642 10.30907,13.77582 16.17079,19.45561 23.24016,22.51883 12.0606,5.22598 23.72663,4.36534 35.32186,-2.60582 4.88724,-2.93826 9.04579,-7.27014 16.90462,-17.60923 11.89001,-15.64255 15.39851,-18.47078 22.92771,-18.48219 7.16157,-0.0109 10.8691,2.89264 20.75359,16.25292 4.50894,6.09447 10.5453,13.19309 13.41412,15.77472 13.09066,11.78018 29.71423,13.27245 45.14879,4.05297 4.99025,-2.98082 9.01593,-7.16812 16.97207,-17.65348 11.89163,-15.67193 15.28656,-18.41574 22.80004,-18.42713 7.16476,-0.0109 10.91138,2.92095 20.8444,16.31123 14.39254,19.40194 23.29897,25.41841 37.67231,25.44836 15.71583,0.0327 24.55296,-5.15456 36.7069,-21.54659 13.56345,-18.29302 15.84264,-20.22101 23.90449,-20.22101 7.21657,0 11.57973,3.48218 21.94023,17.51018 12.41701,16.81253 19.76075,22.20856 33.19522,24.39124 l 4.55696,0.74036 v 21.21075 c 0,18.80619 -0.22482,21.21077 -1.98315,21.21077 -4.27791,0 -10.81332,-5.72306 -18.7441,-16.41419 -14.68085,-19.7906 -24.09956,-26.11746 -38.88075,-26.11746 -14.67042,0 -23.45616,5.72966 -37.59231,24.51603 -10.49935,13.95321 -15.49535,18.01562 -22.15583,18.01562 -6.27676,0 -11.45327,-4.19241 -21.14137,-17.12222 -4.76842,-6.36396 -11.17088,-13.77233 -14.22769,-16.46304 -12.9578,-11.40592 -33.32267,-11.85812 -47.48701,-1.05445 -2.43273,1.85554 -9.00018,9.49794 -14.59436,16.98312 -10.53785,14.09999 -15.02695,17.65659 -22.286,17.65659 -5.53333,0 -11.11954,-4.54808 -19.74289,-16.07393 -14.92054,-19.94259 -22.18986,-25.14307 -36.59694,-26.18151 -16.26843,-1.17261 -25.84835,4.67529 -40.92911,24.98448 -10.22787,13.77381 -14.64607,17.27096 -21.81967,17.27096 -5.53831,0 -11.11107,-4.54256 -19.90604,-16.22614 -10.53732,-13.99816 -14.54123,-18.0201 -22.12241,-22.22199 -5.60264,-3.10526 -7.43766,-3.475 -17.20811,-3.46721 -16.70605,0.0134 -22.25702,3.57437 -37.75524,24.22074 -7.0288,9.3636 -10.97439,13.49559 -14.57779,15.2665 -2.71735,1.33546 -5.24461,2.4281 -5.61611,2.4281 -0.37151,0 -4.10551,-9.70633 -8.29777,-21.56962 z"
       id="path1042"
       sodipodi:nodetypes="ccssssssccccccsssssssssssssssssssssscssssssssssssssssscssss" />
    <path
       d="m 175.44188,310.79833 c 9.1375,-4.92953 11.90662,-8.00418 22.47254,-24.95214 10.72335,-17.20048 14.16524,-20.41574 21.8548,-20.41574 6.62241,0 10.13963,3.33721 19.76052,18.74917 9.96111,15.95691 15.62497,22.53597 22.45572,26.08418 11.65351,6.05339 22.92577,5.05649 34.12961,-3.01839 4.72228,-3.40347 8.74047,-8.42121 16.33403,-20.39726 11.48867,-18.11919 14.87875,-21.39521 22.15381,-21.40842 6.91984,-0.0126 10.50223,3.35062 20.05308,18.8262 4.35675,7.05939 10.18936,15.28192 12.96135,18.27229 12.6488,13.6453 28.71126,15.37384 43.62485,4.69467 4.82181,-3.45277 8.71161,-8.30303 16.3992,-20.44851 11.49024,-18.15323 14.77058,-21.33146 22.03044,-21.34465 6.92293,-0.0126 10.54309,3.38341 20.14083,18.89374 13.90674,22.4738 22.51254,29.44284 36.40073,29.47753 15.18536,0.0379 23.72421,-5.97066 35.4679,-24.958 13.10564,-21.18931 15.30789,-23.42255 23.09763,-23.42255 6.97298,0 11.18886,4.0335 21.19966,20.28252 11.99789,19.47441 19.09375,25.72478 32.07476,28.25304 l 4.40315,0.85758 v 24.56899 c 0,21.78373 -0.21724,24.56902 -1.91622,24.56902 -4.13351,0 -10.44833,-6.62918 -18.11141,-19.01301 -14.18532,-22.92399 -23.28611,-30.25257 -37.56838,-30.25257 -14.17524,0 -22.66443,6.63682 -36.32343,28.39759 -10.14495,16.16239 -14.97233,20.86799 -21.40798,20.86799 -6.06491,0 -11.06669,-4.85619 -20.42777,-19.83314 -4.60747,-7.37155 -10.79382,-15.95287 -13.74746,-19.06959 -12.52043,-13.21179 -32.1979,-13.73558 -45.88415,-1.2214 -2.35061,2.14933 -8.69639,11.00173 -14.10174,19.67202 -10.18216,16.3324 -14.51973,20.45211 -21.53377,20.45211 -5.34655,0 -10.74421,-5.26817 -19.07649,-18.61888 -14.41692,-23.10004 -21.44087,-29.1239 -35.36165,-30.32676 -15.71931,-1.35826 -24.97588,5.41552 -39.5476,28.94021 -9.88264,15.95458 -14.15171,20.00543 -21.08318,20.00543 -5.35137,0 -10.73602,-5.26178 -19.23413,-18.79519 -10.18165,-16.21445 -14.05041,-20.87317 -21.3757,-25.74033 -5.41353,-3.59691 -7.18661,-4.02519 -16.62728,-4.01617 -16.14215,0.0155 -21.50575,4.14029 -36.48085,28.05555 -6.79155,10.84611 -10.60397,15.63231 -14.08574,17.6836"
       style="fill:#000000;stroke-width:1.28559"
       id="path2610" />
    <path
       d="m 205.00378,416.96201 c 9.45671,-4.25573 12.32256,-6.91012 23.25758,-21.54153 11.09794,-14.84941 14.66007,-17.62519 22.61824,-17.62519 6.85375,0 10.49384,2.88106 20.45082,16.18642 10.30907,13.77582 16.17079,19.45561 23.24016,22.51883 12.0606,5.22598 23.72663,4.36534 35.32186,-2.60582 4.88724,-2.93826 9.04579,-7.27014 16.90462,-17.60923 11.89001,-15.64255 15.39851,-18.47078 22.92771,-18.48219 7.16157,-0.0109 10.8691,2.89264 20.75359,16.25292 4.50894,6.09447 10.5453,13.19309 13.41412,15.77472 13.09066,11.78018 29.71423,13.27245 45.14879,4.05297 4.99025,-2.98082 9.01593,-7.16812 16.97207,-17.65348 11.89163,-15.67193 15.28656,-18.41574 22.80004,-18.42713 7.16476,-0.0109 10.91138,2.92095 20.8444,16.31123 14.39254,19.40194 23.29897,25.41841 37.67231,25.44836 15.71583,0.0327 24.55296,-5.15456 36.7069,-21.54659 13.56345,-18.29302 15.84264,-20.22101 23.90449,-20.22101 29.79168,11.02604 8.6176,44.39619 15.50632,71.93131 -1.82169,-32.42237 -38.87808,-23.67 -53.01423,-4.88363 -10.49935,13.95321 -15.49535,18.01562 -22.15583,18.01562 -6.27676,0 -11.45327,-4.19241 -21.14137,-17.12222 -4.76842,-6.36396 -11.17088,-13.77233 -14.22769,-16.46304 -12.9578,-11.40592 -33.32267,-11.85812 -47.48701,-1.05445 -2.43273,1.85554 -9.00018,9.49794 -14.59436,16.98312 -10.53785,14.09999 -15.02695,17.65659 -22.286,17.65659 -5.53333,0 -11.11954,-4.54808 -19.74289,-16.07393 -14.92054,-19.94259 -22.18986,-25.14307 -36.59694,-26.18151 -16.26843,-1.17261 -25.84835,4.67529 -40.92911,24.98448 -10.22787,13.77381 -14.64607,17.27096 -21.81967,17.27096 -5.53831,0 -11.11107,-4.54256 -19.90604,-16.22614 -10.53732,-13.99816 -14.54123,-18.0201 -22.12241,-22.22199 -5.60264,-3.10526 -7.43766,-3.475 -17.20811,-3.46721 -16.70605,0.0134 -22.25702,3.57437 -37.75524,24.22074 -7.0288,9.3636 -10.97439,13.49559 -14.57779,15.2665"
       style="fill:#000000;stroke-width:1.21519"
       id="path2610-6"
       sodipodi:nodetypes="csssssssssssssssccsssssssssssssssc" />
    <path
       d="m 263.13579,518.5874 c 9.45671,-4.25573 12.32256,-6.91012 23.25758,-21.54153 11.09794,-14.84941 14.66007,-17.62519 22.61824,-17.62519 6.85375,0 10.49384,2.88106 20.45082,16.18642 10.30907,13.77582 16.17079,19.45561 23.24016,22.51883 12.0606,5.22598 23.72663,4.36534 35.32186,-2.60582 4.88724,-2.93826 9.04579,-7.27014 16.90462,-17.60923 11.89001,-15.64255 15.39851,-18.47078 22.92771,-18.48219 7.16157,-0.0109 10.8691,2.89264 20.75359,16.25292 4.50894,6.09447 10.5453,13.19309 13.41412,15.77472 13.09066,11.78018 29.71423,13.27245 45.14879,4.05297 4.99025,-2.98082 9.01593,-7.16812 16.97207,-17.65348 11.89163,-15.67193 15.28656,-18.41574 22.80004,-18.42713 7.16476,-0.0109 10.91138,2.92095 20.8444,16.31123 14.39254,19.40194 23.29897,25.41841 37.67231,25.44836 36.20051,-19.615 12.91754,-33.57038 15.77875,25.38084 -14.8311,17.91486 -14.8311,17.91486 -14.8311,17.91486 0,0 -11.45327,-4.19241 -21.14137,-17.12222 -4.76842,-6.36396 -11.17088,-13.77233 -14.22769,-16.46304 -12.9578,-11.40592 -33.32267,-11.85812 -47.48701,-1.05445 -2.43273,1.85554 -9.00018,9.49794 -14.59436,16.98312 -10.53785,14.09999 -15.02695,17.65659 -22.286,17.65659 -5.53333,0 -11.11954,-4.54808 -19.74289,-16.07393 -14.92054,-19.94259 -22.18986,-25.14307 -36.59694,-26.18151 -16.26843,-1.17261 -25.84835,4.67529 -40.92911,24.98448 -10.22787,13.77381 -14.64607,17.27096 -21.81967,17.27096 -5.53831,0 -11.11107,-4.54256 -19.90604,-16.22614 -10.53732,-13.99816 -14.54123,-18.0201 -22.12241,-22.22199 -5.60264,-3.10526 -7.43766,-3.475 -17.20811,-3.46721 -16.70605,0.0134 -22.25702,3.57437 -37.75524,24.22074 -7.0288,9.3636 -10.97439,13.49559 -14.57779,15.2665"
       style="fill:#000000;stroke-width:1.21519"
       id="path2610-6-7"
       sodipodi:nodetypes="cssssssssssssscccsssssssssssssc" />
  </g>
</svg>
